<?xml version="1.0" encoding="UTF-8" standalone="no"?>
<svg
   version="1.1"
   viewBox="0 0 389.9 719.12504"
   id="svg111"
   sodipodi:docname="Escudo-Llerena-bien1.svg"
   width="389.89999"
   height="719.12506"
   inkscape:version="1.4 (86a8ad7, 2024-10-11)"
   xmlns:inkscape="http://www.inkscape.org/namespaces/inkscape"
   xmlns:sodipodi="http://sodipodi.sourceforge.net/DTD/sodipodi-0.dtd"
   xmlns="http://www.w3.org/2000/svg"
   xmlns:svg="http://www.w3.org/2000/svg">
  <sodipodi:namedview
     id="namedview1"
     pagecolor="#ffffff"
     bordercolor="#000000"
     borderopacity="0.25"
     inkscape:showpageshadow="2"
     inkscape:pageopacity="0.0"
     inkscape:pagecheckerboard="0"
     inkscape:deskcolor="#d1d1d1"
     inkscape:zoom="0.96804843"
     inkscape:cx="194.20516"
     inkscape:cy="371.36572"
     inkscape:window-width="1920"
     inkscape:window-height="1017"
     inkscape:window-x="-8"
     inkscape:window-y="-8"
     inkscape:window-maximized="1"
     inkscape:current-layer="svg111" />
  <!-- Generator: Adobe Illustrator 29.0.0, SVG Export Plug-In . SVG Version: 2.1.0 Build 186)  -->
  <defs
     id="defs3">
    <style
       id="style1">
      .st0, .st1, .st2, .st3, .st4, .st5, .st6, .st7, .st8, .st9, .st10, .st11, .st12, .st13 {
        fill-rule: evenodd;
      }

      .st0, .st6 {
        fill: #00b5c9;
      }

      .st1 {
        stroke-width: .9px;
      }

      .st1, .st14, .st15, .st2, .st4, .st16, .st5, .st17, .st18, .st7, .st19, .st20, .st21, .st9, .st22, .st23, .st10, .st24, .st11, .st25, .st26, .st27, .st12, .st13 {
        stroke: #000;
      }

      .st1, .st4, .st16, .st22, .st11 {
        stroke-linecap: round;
      }

      .st1, .st5, .st28, .st19, .st20, .st21, .st29, .st30 {
        fill: #eac102;
      }

      .st14, .st31, .st4, .st16, .st5, .st28, .st18, .st32, .st19, .st20, .st21, .st22, .st23, .st24, .st25, .st26, .st27, .st30 {
        stroke-miterlimit: 4.7;
      }

      .st14, .st31, .st32, .st23, .st10, .st24 {
        fill: #fff;
      }

      .st14, .st28, .st21, .st22 {
        stroke-width: 1px;
      }

      .st15, .st16, .st9, .st22, .st13 {
        fill: none;
      }

      .st3, .st17, .st7 {
        fill: #05a139;
      }

      .st31, .st4, .st19, .st25 {
        stroke-width: 1px;
      }

      .st31, .st28, .st32, .st29, .st30 {
        stroke: #010101;
      }

      .st4 {
        fill: #c8b100;
      }

      .st16, .st5, .st18, .st32, .st20, .st24, .st26, .st27, .st30 {
        stroke-width: 1px;
      }

      .st18 {
        fill: url(#Degradado_sin_nombre_3);
      }

      .st6 {
        stroke: #293070;
      }

      .st8 {
        fill: #c8c8c8;
      }

      .st23 {
        stroke-width: 1.2px;
      }

      .st11 {
        fill: #008f4c;
        stroke-width: .9px;
      }

      .st25, .st26 {
        fill: #ed1c24;
      }

      .st27 {
        fill: #0071bc;
      }

      .st29 {
        stroke-miterlimit: 18.5;
        stroke-width: 1px;
      }

      .st12 {
        fill: #da121a;
      }

      .st13 {
        stroke-linejoin: bevel;
      }
    </style>
    <linearGradient
       id="Degradado_sin_nombre_3"
       data-name="Degradado sin nombre 3"
       x1="-930.90002"
       y1="223.60001"
       x2="-731"
       y2="223.60001"
       gradientTransform="matrix(1.2,0,0,-1.2,1276.4,564.5)"
       gradientUnits="userSpaceOnUse">
      <stop
         offset="0"
         stop-color="#5d070b"
         id="stop1" />
      <stop
         offset=".5"
         stop-color="#ed1c24"
         id="stop2" />
      <stop
         offset="1"
         stop-color="#5d070a"
         id="stop3" />
    </linearGradient>
  </defs>
  <g
     id="g1"
     transform="translate(-103.2,-49.599997)">
    <g
       id="Capa_1">
      <g
         id="g11247">
        <path
           id="path9404"
           class="st27"
           d="m 313.8,90.4 c -2,0.2 -4.1,0.3 -6.1,0.4 -3.2,0.1 -6.4,0.2 -9.6,0.2 -5.2,0 -10.4,-0.3 -15.6,-0.7 1.3,7.1 7.8,12.5 15.6,12.5 7.8,0 14.3,-5.4 15.6,-12.4 z" />
        <path
           id="path9406"
           class="st27"
           d="m 298.2,72.7 c -7.9,0 -14.4,5.4 -15.6,12.6 2.1,-0.2 4.2,-0.4 6.2,-0.5 3.2,-0.2 6.3,-0.2 9.5,-0.2 3.2,0 6.3,0 9.5,0.3 2,0.1 4,0.3 6,0.5 -1.3,-7.1 -7.8,-12.6 -15.6,-12.6 z" />
        <path
           id="polygon9408"
           class="st29"
           d="m 300.1,63.3 v 8.4 l 1.1,1.2 h -6.1 l 1.1,-1.2 v -8.4 h -8.4 l -1.1,1.2 v -6.1 l 1.1,1.2 h 8.4 v -8.4 l -1.1,-1.1 h 6.1 l -1.1,1.1 v 8.4 h 8.4 l 1.1,-1.2 v 6.1 l -1.1,-1.2 z" />
        <path
           id="rect9410"
           class="st4"
           d="m 287.9,99.5 h 20.6 v 10.7 h -20.6 z" />
        <path
           id="path9412"
           class="st20"
           d="m 295.6,72.9 c -0.1,1.7 -0.3,3.5 -0.4,5.2 -0.1,2.2 -0.1,4.3 -0.2,6.5 1.1,0 2.2,0 3.2,0 1,0 2.1,0 3.1,0 0,-2.1 0,-4.3 -0.1,-6.4 0,-1.8 -0.2,-3.5 -0.4,-5.3 -0.9,-0.1 -1.8,-0.2 -2.7,-0.2 -0.9,0 -1.7,0.1 -2.5,0.2 z" />
        <path
           id="path9414"
           class="st20"
           d="m 313.8,85.3 c -3.7,-0.8 -10.3,-1.7 -15.5,-1.7 -5.3,0 -11.8,0.8 -15.7,1.7 -0.1,0.8 -0.3,1.6 -0.3,2.5 0,0.9 0.1,1.7 0.3,2.5 5.2,0.4 10.4,0.7 15.6,0.7 3.2,0 6.4,0 9.6,-0.2 2,0 4.1,-0.3 6.1,-0.4 0.2,-0.9 0.3,-1.7 0.3,-2.6 0,-0.9 -0.1,-1.7 -0.3,-2.5 z" />
        <path
           id="path9416"
           class="st25"
           d="m 297.6,132.4 c 24.2,0 48.7,6.1 59.7,12.2 11,6.1 20.2,8.7 30.6,10.5 10.4,1.8 16.2,1.7 24.9,1.2 8.7,-0.5 25.5,4.3 38.6,12.1 13.1,7.8 21.8,15.6 28.4,23.9 L 430.5,271 H 166 l -49.3,-78.7 c 6.6,-8.3 15.3,-16.2 28.4,-23.9 13.1,-7.8 29.9,-12.6 38.6,-12.1 8.7,0.5 14.5,0.7 24.9,-1.2 10.4,-1.9 19.5,-4.4 30.6,-10.5 11.1,-6.1 34.3,-12.2 58.5,-12.2 v 0 z" />
        <path
           id="path9418"
           class="st28"
           d="m 480.1,198.2 c -0.6,2.3 -1.6,4.5 -3.2,6.7 l -19,-21.7 c 1.4,-4 1.7,-5.9 1.1,-10.1 -2.2,-16 -27.9,-32.6 -59.2,-34.8 -31.2,-2.2 -87,-32.9 -101.8,-22.6 5.3,-6.5 18.6,-6.4 34.6,-3.8 4.2,1.3 8.5,2.7 13,4.3 10.8,3.7 22.1,7.9 32.7,11.2 5.3,1.7 10.4,3.1 15.1,4.2 2.4,0.6 4.7,1 6.9,1.4 2.2,0.4 4.3,0.6 6.2,0.8 3.9,0.3 7.7,0.8 11.4,1.5 3.7,0.7 7.3,1.7 10.7,2.9 3.4,1.2 6.7,2.4 9.7,3.9 3,1.5 5.9,3.1 8.6,4.8 2.7,1.7 5.1,3.5 7.2,5.4 2.1,1.9 4.1,3.9 5.7,5.9 1.6,2 2.9,4 3.9,6.1 1,2.1 0.9,2 1.2,3 0.3,1 0.5,2 0.7,3 0.3,2.1 0.4,3.6 0.2,5.1 -0.2,1.5 -0.6,3 -1.3,5 l 15.6,17.7 z" />
        <path
           id="path9420"
           class="st28"
           d="m 480.1,198.2 -15.6,-17.7 c 0.7,-2 1.1,-3.5 1.3,-5 0.2,-1.5 0.1,-3 -0.2,-5.1 -0.1,-1 -0.4,-2 -0.7,-3 -0.3,-1 -0.7,-2 -1.2,-3 -1,-2 -2.3,-4.1 -3.9,-6.1 -1.6,-2 -3.5,-4 -5.7,-5.9 -2.2,-1.9 -4.6,-3.7 -7.2,-5.4 -2.6,-1.7 -5.5,-3.3 -8.6,-4.8 -3.1,-1.5 -6.3,-2.8 -9.7,-3.9 -3.4,-1.1 -7,-2.1 -10.7,-2.9 -3.7,-0.8 -7.5,-1.3 -11.4,-1.5 -1.9,-0.1 -4,-0.4 -6.2,-0.8 -2.2,-0.4 -4.5,-0.8 -6.9,-1.4 -4.8,-1.1 -9.9,-2.6 -15.1,-4.2 -10.6,-3.3 -21.9,-7.5 -32.7,-11.2 -4.5,-1.5 -8.8,-2.9 -13,-4.3 25,4.1 57,14.5 77.4,16.5 33.4,3.3 67.5,25.9 70.4,53.9 0.6,5.8 1.1,10.9 -0.3,15.9 z" />
        <path
           id="path9422"
           class="st28"
           d="m 116.3,198.2 c 0.6,2.3 1.6,4.5 3.2,6.7 l 19,-21.7 c -1.4,-4 -1.7,-5.9 -1.1,-10.1 2.2,-16 27.9,-32.6 59.2,-34.8 31.2,-2.2 87,-32.9 101.8,-22.6 -5.3,-6.5 -18.6,-6.4 -34.6,-3.8 -4.2,1.3 -8.5,2.7 -13,4.3 -10.8,3.7 -22.1,7.9 -32.7,11.2 -5.3,1.7 -10.4,3.1 -15.1,4.2 -4.7,1.1 -4.7,1 -6.9,1.4 -2.2,0.4 -4.3,0.6 -6.2,0.8 -3.9,0.3 -7.7,0.8 -11.4,1.5 -3.7,0.7 -7.3,1.7 -10.7,2.9 -3.4,1.2 -6.7,2.4 -9.7,3.9 -3,1.5 -5.9,3.1 -8.6,4.8 -2.7,1.7 -5.1,3.5 -7.2,5.4 -2.2,1.9 -4.1,3.9 -5.7,5.9 -1.6,2 -2.9,4 -3.9,6.1 -0.5,1 -0.9,2 -1.2,3 -0.3,1 -0.5,2 -0.7,3 -0.3,2.1 -0.4,3.6 -0.2,5.1 0.2,1.5 0.6,3 1.3,5 l -15.6,17.7 z" />
        <path
           id="path9424"
           class="st28"
           d="m 116.3,198.2 15.6,-17.7 c -0.7,-2 -1.1,-3.5 -1.3,-5 -0.2,-1.5 -0.1,-3 0.2,-5.1 0.1,-1 0.4,-2 0.7,-3 0.3,-1 0.7,-2 1.2,-3 1,-2 2.3,-4.1 3.9,-6.1 1.6,-2 3.5,-4 5.7,-5.9 2.2,-1.9 4.6,-3.7 7.2,-5.4 2.7,-1.7 5.5,-3.3 8.6,-4.8 3.1,-1.5 6.3,-2.8 9.7,-3.9 3.4,-1.1 7,-2.1 10.7,-2.9 3.7,-0.8 7.5,-1.3 11.4,-1.5 1.9,-0.1 4,-0.4 6.2,-0.8 2.2,-0.4 4.5,-0.8 6.9,-1.4 4.8,-1.1 9.9,-2.6 15.1,-4.2 10.6,-3.3 21.9,-7.5 32.7,-11.2 4.5,-1.5 8.8,-2.9 13,-4.3 -25,4.1 -57,14.5 -77.4,16.5 -33.4,3.3 -67.5,25.9 -70.4,53.9 -0.6,5.8 -1.1,10.9 0.3,15.9 z" />
        <path
           id="path9426"
           class="st20"
           d="m 297.8,279.8 c -50.7,0 -96.2,6.5 -128.2,16.3 2.7,-1.3 -1.3,-12.6 -4.6,-21.1 -4,-10.3 -9.9,-11.8 -9.9,-11.8 35.4,-10.5 88,-17.8 142.9,-17.9 54.9,0 107.8,7.2 143.2,17.7 0,0 -7,2.3 -11,12.6 -3.3,8.5 -6,19.3 -3.3,20.6 -32,-9.9 -78.4,-16.2 -129.1,-16.3" />
        <path
           id="path9428"
           class="st20"
           d="m 298.1,247.8 c -54.9,0 -104.1,6.6 -139.5,17.1 -2.4,0.7 -4.9,-0.2 -5.6,-2.5 -0.8,-2.2 0.5,-4.8 2.9,-5.5 35.6,-10.9 86.1,-17.8 142.3,-17.9 56.2,0.1 107,7 142.5,17.9 2.4,0.7 3.6,3.3 2.9,5.5 -0.8,2.2 -3.3,3.2 -5.6,2.5 -35.4,-10.5 -84.9,-17 -139.8,-17.1" />
        <path
           id="path9430"
           class="st20"
           d="m 298.3,205.6 4.8,0.9 c -0.8,2 -0.9,4.2 -0.9,6.4 0,10.2 8.6,18.5 19.1,18.5 10.5,0 15.7,-5.3 18.1,-12.7 0.3,0.2 1.8,-6.7 2.6,-6.6 0.7,0 0.6,7.1 0.8,7 1.2,9.3 9.5,15.6 18.9,15.6 9.4,0 19,-8.2 19,-18.4 0,-10.2 0,-1.5 -0.1,-2.3 l 6,-6.1 3.2,7.7 c -1.3,2.4 -1.8,5.1 -1.8,8.1 0,9.7 8.1,17.6 18.2,17.6 10.1,0 11.9,-3.1 15.1,-7.8 l 3.8,-5 v 6.1 c 0,6.1 2.5,11.6 8.4,12.6 0,0 6.7,0.4 15.6,-6.7 8.9,-7.1 13.8,-13.1 13.8,-13.1 l 0.8,7.2 c 0,0 -7.4,11.7 -15.4,16.4 -4.4,2.6 -11.1,5.4 -16.4,4.5 -5.6,-0.9 -9.6,-5.5 -11.7,-10.8 -4,2.4 -8.7,3.8 -13.8,3.8 -10.9,0 -20.7,-6.1 -24.5,-15.3 -5,5.5 -12,8.9 -20.1,8.9 -8.1,0 -16.6,-4 -21.6,-10.1 -4.9,4.6 -11.6,7.4 -18.9,7.4 -7.3,0 -18.2,-4.8 -23.1,-12.1 -4.9,7.3 -13.4,12.1 -23,12.1 -9.6,0 -14,-2.8 -18.9,-7.4 -5,6.1 -12.9,10.1 -21.6,10.1 -8.7,0 -15.1,-3.4 -20.2,-8.9 -3.9,9.2 -13.6,15.3 -24.5,15.3 -10.9,0 -9.8,-1.4 -13.8,-3.8 -2.1,5.3 -6.1,9.9 -11.7,10.8 -5.3,0.9 -12,-1.9 -16.4,-4.5 -8,-4.8 -15.4,-16.4 -15.4,-16.4 l 0.8,-7.2 c 0,0 4.9,5.9 13.8,13.1 8.9,7.2 15.6,6.7 15.6,6.7 5.8,-1 8.4,-6.5 8.4,-12.6 v -6.1 c 0,0 3.8,5 3.8,5 3.3,4.7 8.8,7.8 15.1,7.8 10,0 18.2,-7.9 18.2,-17.6 0,-9.7 -0.5,-5.6 -1.8,-8.1 l 3.2,-7.7 6,6.1 c 0,0.7 -0.1,1.5 -0.1,2.3 0,10.2 8.5,18.4 19,18.4 10.5,0 17.7,-6.3 18.9,-15.6 0.3,0.1 0.2,-6.9 0.9,-7 0.8,0 2.3,6.8 2.6,6.6 2.5,7.4 9.7,12.7 18.2,12.7 8.5,0 19.1,-8.3 19.1,-18.5 0,-10.2 -0.1,-4.5 -0.9,-6.4 l 5,-0.9" />
        <path
           id="path9432"
           class="st24"
           d="m 163.7,228 c 0,-4.5 3.7,-8.2 8.2,-8.2 4.5,0 8.3,3.7 8.3,8.2 0,4.5 -3.7,8.3 -8.3,8.3 -4.6,0 -8.2,-3.7 -8.2,-8.3" />
        <path
           id="path9434"
           class="st24"
           d="m 416.5,228 c 0,-4.5 3.7,-8.2 8.2,-8.2 4.5,0 8.3,3.7 8.3,8.2 0,4.5 -3.7,8.3 -8.3,8.3 -4.6,0 -8.2,-3.7 -8.2,-8.3" />
        <path
           id="path9436"
           class="st24"
           d="m 247.1,213.4 c 0,-4.5 3.7,-8.2 8.2,-8.2 4.5,0 8.3,3.7 8.3,8.2 0,4.5 -3.7,8.3 -8.3,8.3 -4.6,0 -8.2,-3.7 -8.2,-8.3" />
        <path
           id="path9438"
           class="st24"
           d="m 333.9,213.4 c 0,-4.5 3.7,-8.2 8.2,-8.2 4.5,0 8.3,3.7 8.3,8.2 0,4.5 -3.7,8.3 -8.3,8.3 -4.6,0 -8.2,-3.7 -8.2,-8.3" />
        <path
           id="path9440"
           class="st5"
           d="m 138.1,240.3 c 2.6,1.2 3.3,1.4 7.3,1.4 4.1,0.2 12.5,-2.3 12.5,-2.3 0,0 -2.7,-1.6 -3.5,-3.1 -1.1,-1.9 -1,-2.8 -3.1,-4.7 -2,-1.9 -5.4,-2.2 -5.4,-2.2 l -1.4,-2.8 2.7,-0.4 c 0,0 1.5,2.7 4.7,3.7 3.2,0.9 8.5,-2.3 8.5,-2.3 0,0 -2.8,-5.8 -5.9,-6.3 -3.1,-0.5 -4.4,-0.1 -4.4,-0.1 l -1.8,-2.2 1.7,-0.9 c 0,0 4.1,1.5 6,0.5 1.9,-1 1.8,-2.5 2.5,-5.6 0.6,-2.6 1.8,-5.8 1.8,-5.8 0,0 -3.3,-0.1 -5.8,-1.2 -2.5,-1.1 -4.1,-3.4 -7,-2.2 -2.8,1.2 -2.4,3.2 -3.3,5 -0.9,1.8 -3.7,2.2 -3.7,2.2 l -0.5,-2.4 c 0,0 2.6,-0.7 3.4,-3.6 0.8,-2.9 -0.1,-5.7 -0.1,-5.7 0,0 -4.3,0.2 -6,2.5 -1.8,2.3 -0.9,2.8 -2.2,3.7 -1.3,0.9 -2.8,0.8 -2.8,0.8 0,0 -0.7,-1.9 0.5,-3 1.2,-1 0.9,-1 2.3,-2.1 1.4,-1.1 3.9,-6.1 3.9,-6.1 0,0 -1.7,-0.3 -3.3,-0.1 -1.6,0.2 -3.7,0.9 -4.1,0.3 -0.4,-0.6 0.1,-0.6 -1.1,-3.5 -1.2,-2.9 -2.9,-5 -2.9,-5 -2,0.4 -3.5,1.3 -6.1,3 -2.6,1.7 -1.8,1.6 -5.2,4.4 -2.7,-1.2 -7.3,-1.8 -11.5,-0.1 8.8,7.5 8.5,7.5 12.6,16.4 0.8,0.8 1.5,1.8 2.2,2.8 0.7,1 1.4,2.1 2.1,3.3 1.4,2.3 2.7,4.8 3.9,7.3 1.2,2.5 2.2,4.8 3.1,6.8 0.4,1 1,2.1 1.8,3.1 0.7,1 1.6,2.1 2.5,3.1 0.8,0.9 3.9,2.6 4.8,3.4 v 0 z" />
        <path
           id="path9442"
           class="st22"
           d="m 133.7,231.4 c 0,0 2,2 3.2,2.8 1.2,0.7 4.4,1.9 4.4,1.9" />
        <path
           id="path9444"
           class="st22"
           d="m 135.3,223.6 c 3.2,-1 6.5,-0.6 9.6,0" />
        <path
           id="path9446"
           class="st22"
           d="m 133.5,219.2 c 2.9,-1.7 6.5,-3.2 11.3,-4.3" />
        <path
           id="path9448"
           class="st22"
           d="m 130.2,214.7 c 0,0 1,-2.1 2.4,-3.1 1.4,-1 1.9,-2.5 1.9,-2.5" />
        <path
           id="path9450"
           class="st22"
           d="m 122.1,210.5 c 0,0 -0.3,-0.8 0.2,-3.5 0.5,-2.6 2,-4.5 2,-4.5" />
        <path
           id="path9452"
           class="st21"
           d="m 131.2,234.1 c 4.6,-1.9 5.7,-8.3 2.3,-14.7 -3.4,-6.5 -10.1,-10.3 -14.9,-8.6 -0.2,0 -0.4,0.2 -0.6,0.3 0.2,1 0.1,1 0.4,2.3 0.4,2 0.9,4.2 1.5,6.2 0.6,2 1.2,3.7 2,5 0.8,1.3 1.8,2.5 3,3.8 1.2,1.3 2.5,2.5 3.8,3.6 1.3,1.2 1.6,1.4 2.5,2 v 0 z" />
        <path
           id="path9454"
           class="st14"
           d="m 120.8,223.9 c -2.5,-4.8 -3.9,-8.8 -0.6,-10 3.3,-1.2 8.1,1.7 10.6,6.5 2.5,4.8 1.9,9.6 -1.4,10.8 -3.3,1.2 -6.1,-2.6 -8.6,-7.4" />
        <path
           id="path9456"
           class="st5"
           d="m 458.3,240.3 c -2.6,1.2 -3.3,1.4 -7.3,1.4 -4.1,0.2 -12.5,-2.3 -12.5,-2.3 0,0 2.7,-1.6 3.5,-3.1 1.1,-1.9 1,-2.8 3.1,-4.7 2,-1.9 5.4,-2.2 5.4,-2.2 l 1.4,-2.8 -2.7,-0.4 c 0,0 -1.5,2.7 -4.7,3.7 -3.2,0.9 -8.5,-2.3 -8.5,-2.3 0,0 2.8,-5.8 5.9,-6.3 3.1,-0.5 4.4,-0.1 4.4,-0.1 l 1.8,-2.2 -1.7,-0.9 c 0,0 -4.1,1.5 -6,0.5 -1.9,-1 -1.8,-2.5 -2.5,-5.6 -0.6,-2.6 -1.8,-5.8 -1.8,-5.8 0,0 3.3,-0.1 5.8,-1.2 2.5,-1.1 4.1,-3.4 7,-2.2 2.8,1.2 2.4,3.2 3.3,5 0.9,1.8 3.7,2.2 3.7,2.2 l 0.5,-2.4 c 0,0 -2.6,-0.7 -3.4,-3.6 -0.8,-2.9 0.1,-5.7 0.1,-5.7 0,0 4.3,0.2 6,2.5 1.8,2.3 0.9,2.8 2.2,3.7 1.3,0.9 2.8,0.8 2.8,0.8 0,0 0.7,-1.9 -0.5,-3 -1.2,-1 -0.9,-1 -2.3,-2.1 -1.4,-1.1 -3.9,-6.1 -3.9,-6.1 0,0 1.7,-0.3 3.3,-0.1 1.5,0.1 3.7,0.9 4.1,0.3 0.4,-0.6 -0.1,-0.6 1.1,-3.5 1.2,-2.9 2.9,-5 2.9,-5 2,0.4 3.5,1.3 6.1,3 2.6,1.8 1.8,1.6 5.2,4.4 2.7,-1.2 7.3,-1.8 11.5,-0.1 -6.5,4.7 -8.5,6.5 -12.6,16.4 -0.8,0.8 -1.5,1.8 -2.2,2.8 -0.7,1 -1.4,2.1 -2.1,3.3 -1.4,2.3 -2.7,4.8 -3.9,7.3 -1.2,2.5 -2.2,4.8 -3.1,6.8 -0.4,1 -1,2.1 -1.8,3.1 -0.8,1 -1.6,2.1 -2.5,3.1 -0.8,0.9 -3.9,2.6 -4.8,3.4 v 0 z" />
        <path
           id="path9458"
           class="st22"
           d="m 462.7,231.4 c 0,0 -2,2 -3.2,2.8 -1.2,0.7 -4.4,1.9 -4.4,1.9" />
        <path
           id="path9460"
           class="st22"
           d="m 461.1,223.6 c -3.2,-1 -6.5,-0.6 -9.6,0" />
        <path
           id="path9462"
           class="st22"
           d="m 462.9,219.2 c -2.9,-1.7 -6.5,-3.2 -11.3,-4.3" />
        <path
           id="path9464"
           class="st22"
           d="m 466.2,214.7 c 0,0 -1,-2.1 -2.4,-3.1 -1.4,-1 -1.9,-2.5 -1.9,-2.5" />
        <path
           id="path9466"
           class="st22"
           d="m 474.3,210.5 c 0,0 0.3,-0.8 -0.2,-3.5 -0.5,-2.6 -2,-4.5 -2,-4.5" />
        <path
           id="path9468"
           class="st21"
           d="m 465.2,234.1 c -4.6,-1.9 -5.7,-8.3 -2.3,-14.7 3.4,-6.5 10.1,-10.3 14.9,-8.6 0.2,0 0.4,0.2 0.6,0.3 -0.2,1 -0.1,1 -0.4,2.3 -0.4,2 -0.9,4.2 -1.5,6.2 -0.6,2 -1.2,3.7 -2,5 -0.8,1.3 -1.8,2.5 -3,3.8 -1.2,1.3 -2.5,2.5 -3.8,3.6 -1.3,1.2 -1.6,1.4 -2.5,2 v 0 z" />
        <path
           id="path9470"
           class="st14"
           d="m 475.6,223.9 c 2.5,-4.8 3.9,-8.8 0.6,-10 -3.3,-1.2 -8.1,1.7 -10.6,6.5 -2.5,4.8 -1.9,9.6 1.4,10.8 3.3,1.2 6.1,-2.6 8.6,-7.4" />
        <path
           id="path9472"
           class="st20"
           d="m 298.2,321 c -50.1,0 -95,-6 -127,-15.6 -2.3,-0.7 -3.6,-2.9 -3.4,-5.1 0,-2.2 1.2,-4.1 3.4,-4.8 32,-9.6 76.9,-15.6 127,-15.6 50.1,0 94.9,6 126.9,15.6 2.3,0.7 3.5,2.6 3.4,4.8 0.1,2.2 -1.1,4.4 -3.4,5.1 -32,9.6 -76.9,15.6 -126.9,15.6" />
        <path
           id="path9474"
           class="st18"
           d="m 298.1,314.5 c -45.2,0 -86.1,-5.3 -117.2,-13.3 31.1,-8 72,-13 117.2,-13.1 45.2,0 86.3,5 117.4,13.1 -31.1,8 -72.2,13.3 -117.4,13.3"
           style="fill:url(#Degradado_sin_nombre_3)" />
        <path
           id="path9476"
           class="st20"
           d="m 298.2,273.8 c -11.7,0 -21.2,-4.4 -21.2,-9.9 0,-5.5 9.5,-9.9 21.2,-9.9 11.7,0 21.2,4.4 21.2,9.9 0,5.5 -9.5,9.9 -21.2,9.9" />
        <path
           id="path9478"
           class="st26"
           d="m 298.2,270.7 c -8.7,0 -15.7,-3 -15.7,-6.8 0,-3.8 7,-6.8 15.7,-6.8 8.7,0 15.8,3 15.8,6.8 0,3.8 -7,6.8 -15.8,6.8" />
        <path
           id="path9480"
           class="st20"
           d="m 433.2,270.5 c -0.4,-0.1 -0.7,-0.3 -1.1,-0.4 -11.2,-3.3 -21.6,-1.7 -23.1,3.5 -1.5,5.2 6.3,12 17.4,15.3 0.6,-0.7 1.2,-1.3 1.7,-2 0.8,-1.1 1.5,-2.2 2.2,-3.4 0.7,-1.2 1.1,-2.3 1.5,-3.5 0.4,-1.1 0.7,-2.3 0.9,-3.4 0.2,-1.1 0.4,-2.2 0.5,-3.3 0,-1.1 0,-2 0,-2.9 z" />
        <path
           id="path9482"
           class="st26"
           d="m 433.4,273.9 c -0.7,-0.3 -1.4,-0.6 -2.2,-0.8 -8.4,-2.4 -15.9,-1.5 -17,2.1 -1,3.6 4.8,8.5 13.2,10.9 0.5,0.1 1,0.2 1.5,0.3 0.7,-0.5 1.4,-0.9 2,-1.5 0.5,-0.5 1.1,-1.1 1.5,-1.7 0.4,-0.6 0.8,-1.3 1,-2 0.2,-0.7 0.4,-1.4 0.5,-2.2 0,-0.8 0,-1.6 0,-2.3 0,-0.9 -0.3,-1.8 -0.4,-2.7 z" />
        <path
           id="path9484"
           class="st20"
           d="m 162.6,270.5 c 0.4,-0.1 0.7,-0.3 1.1,-0.4 11.2,-3.3 21.6,-1.7 23.1,3.5 1.5,5.2 -6.3,12 -17.4,15.3 -0.6,-0.7 -1.2,-1.3 -1.7,-2 -0.8,-1.1 -1.5,-2.2 -2.2,-3.4 -0.7,-1.2 -1.1,-2.3 -1.5,-3.5 -0.4,-1.1 -0.7,-2.3 -0.9,-3.4 -0.2,-1.1 -0.4,-2.2 -0.5,-3.3 0,-1.1 0,-2 0,-2.9 z" />
        <path
           id="path9486"
           class="st26"
           d="m 162.4,273.9 c 0.7,-0.3 1.4,-0.6 2.2,-0.8 8.4,-2.4 15.9,-1.5 17,2.1 1,3.6 -4.8,8.5 -13.2,10.9 -0.5,0.1 -1,0.2 -1.5,0.3 -0.7,-0.5 -1.4,-0.9 -2,-1.5 -0.5,-0.5 -1.1,-1.1 -1.5,-1.7 -0.4,-0.6 -0.8,-1.3 -1,-2 -0.2,-0.7 -0.4,-1.4 -0.5,-2.2 -0.1,-0.8 0,-1.6 0,-2.3 0,-0.9 0.3,-1.8 0.4,-2.7 z" />
        <path
           id="path9488"
           class="st23"
           d="m 259.3,264.5 c 0,-2.3 2,-4.2 4.5,-4.2 2.5,0 4.5,1.9 4.5,4.2 0,2.3 -2,4.2 -4.5,4.2 -2.5,0 -4.5,-1.9 -4.5,-4.2" />
        <path
           id="path9490"
           class="st23"
           d="m 191.9,272.4 c 0,-2.3 2,-4.2 4.5,-4.2 2.5,0 4.5,1.9 4.5,4.2 0,2.3 -2,4.2 -4.5,4.2 -2.5,0 -4.5,-1.9 -4.5,-4.2" />
        <path
           id="path9492"
           class="st23"
           d="m 328.8,264.5 c 0,-2.3 2,-4.2 4.5,-4.2 2.5,0 4.5,1.9 4.5,4.2 0,2.3 -2,4.2 -4.5,4.2 -2.5,0 -4.5,-1.9 -4.5,-4.2" />
        <path
           id="path9494"
           class="st23"
           d="m 395.6,272.4 c 0,-2.3 2,-4.2 4.5,-4.2 2.5,0 4.5,1.9 4.5,4.2 0,2.3 -2,4.2 -4.5,4.2 -2.5,0 -4.5,-1.9 -4.5,-4.2" />
        <path
           id="rect9496"
           class="st1"
           d="m 227.5,255.2 24.3,9.3 -21.3,15.2 -24.3,-9.3 z" />
        <path
           id="rect9498"
           class="st11"
           d="m 228.1,259.5 15.9,6.1 -14,9.9 -15.9,-6.1 z" />
        <path
           id="rect9500"
           class="st1"
           d="m 368.8,255.3 -24.3,9.3 21.3,15.2 24.3,-9.3 z" />
        <path
           id="rect9502"
           class="st11"
           d="m 368.3,259.5 -15.9,6.1 14,9.9 15.9,-6.1 z" />
        <path
           id="path9504"
           class="st32"
           d="m 278.6,104.6 c 0,3.4 -2.7,6.1 -6.1,6.1 -3.4,0 -6.1,-2.7 -6.1,-6.1 0,0 0,0 0,0 0,-3.4 2.7,-6.1 6.1,-6.1 3.4,0 6.1,2.7 6.1,6.1 z" />
        <path
           id="path9506"
           class="st32"
           d="m 260.7,106.9 c 0,3.7 -3,6.7 -6.7,6.7 -3.7,0 -6.7,-3 -6.7,-6.7 v 0 c 0,-3.7 3,-6.8 6.7,-6.8 3.7,0 6.7,3 6.7,6.7 v 0 z" />
        <path
           id="path9508"
           class="st32"
           d="m 240.6,111.6 c 0,4.3 -3.4,7.7 -7.7,7.7 -4.3,0 -7.7,-3.4 -7.7,-7.7 v 0 c 0,-4.3 3.4,-7.8 7.7,-7.8 4.3,0 7.7,3.4 7.7,7.7 v 0 z" />
        <path
           id="path9510"
           class="st32"
           d="m 217.7,117.6 c 0,4.7 -3.8,8.5 -8.5,8.5 -4.7,0 -8.5,-3.8 -8.5,-8.5 v 0 c 0,-4.8 3.8,-8.6 8.5,-8.6 4.7,0 8.5,3.8 8.5,8.5 v 0 z" />
        <path
           id="path9512"
           class="st32"
           d="m 190,122.3 c 0,5.2 -4.2,9.5 -9.5,9.5 -5.2,0 -9.5,-4.2 -9.5,-9.5 v 0 c 0,-5.3 4.2,-9.6 9.5,-9.6 5.3,0 9.5,4.2 9.5,9.5 v 0 z" />
        <path
           id="path9514"
           class="st32"
           d="m 161,130.9 c 0,5.7 -4.6,10.3 -10.3,10.3 -5.7,0 -10.3,-4.6 -10.3,-10.3 v 0 c 0,-5.8 4.6,-10.4 10.3,-10.4 5.7,0 10.3,4.6 10.3,10.3 v 0 z" />
        <path
           id="path9516"
           class="st32"
           d="m 138.1,147.1 c 0,5.7 -4.6,10.3 -10.3,10.3 -5.7,0 -10.3,-4.6 -10.3,-10.3 v 0 c 0,-5.8 4.6,-10.4 10.3,-10.4 5.7,0 10.3,4.6 10.3,10.3 v 0 z" />
        <path
           id="path9518"
           class="st32"
           d="m 125.9,176.5 c 0,6.1 -4.9,11.1 -11.1,11.1 -6.1,0 -11.1,-4.9 -11.1,-11.1 v 0 c 0,-6.2 4.9,-11.2 11.1,-11.2 6.1,0 11.1,4.9 11.1,11.1 v 0 q 0,0 0,0 z" />
        <path
           id="path9520"
           class="st31"
           d="m 283.3,102 c 0,3 2.4,5.4 5.4,5.4 3,0 5.4,-2.4 5.4,-5.4 v 0 c 0,-3 -2.4,-5.5 -5.4,-5.5 -3,0 -5.4,2.4 -5.4,5.4 0,0 0,0 0,0 z" />
        <path
           id="path9522"
           class="st32"
           d="m 317.8,104.6 c 0,3.4 2.7,6.1 6.1,6.1 3.4,0 6.1,-2.7 6.1,-6.1 0,0 0,0 0,0 0,-3.4 -2.7,-6.1 -6.1,-6.1 -3.4,0 -6.1,2.7 -6.1,6.1 z" />
        <path
           id="path9524"
           class="st32"
           d="m 335.6,106.9 c 0,3.7 3,6.7 6.7,6.7 3.7,0 6.7,-3 6.7,-6.7 v 0 c 0,-3.7 -3,-6.8 -6.7,-6.8 -3.7,0 -6.7,3 -6.7,6.7 v 0 c 0,0 0,0 0,0 z" />
        <path
           id="path9526"
           class="st32"
           d="m 355.7,111.6 c 0,4.3 3.4,7.7 7.7,7.7 4.3,0 7.7,-3.4 7.7,-7.7 v 0 c 0,-4.3 -3.4,-7.8 -7.7,-7.8 -4.3,0 -7.7,3.4 -7.7,7.7 v 0 z" />
        <path
           id="path9528"
           class="st32"
           d="m 378.7,117.6 c 0,4.7 3.8,8.5 8.5,8.5 4.7,0 8.5,-3.8 8.5,-8.5 v 0 c 0,-4.8 -3.8,-8.6 -8.5,-8.6 -4.7,0 -8.5,3.8 -8.5,8.5 v 0 z" />
        <path
           id="path9530"
           class="st32"
           d="m 406.4,122.3 c 0,5.2 4.2,9.5 9.5,9.5 5.2,0 9.5,-4.2 9.5,-9.5 v 0 c 0,-5.3 -4.2,-9.6 -9.5,-9.6 -5.3,0 -9.5,4.2 -9.5,9.5 v 0 c 0,0 0,0 0,0 z" />
        <path
           id="path9532"
           class="st32"
           d="m 435.4,130.9 c 0,5.7 4.6,10.3 10.3,10.3 5.7,0 10.3,-4.6 10.3,-10.3 v 0 c 0,-5.8 -4.6,-10.4 -10.3,-10.4 -5.7,0 -10.3,4.6 -10.3,10.3 v 0 c 0,0 0,0 0,0 z" />
        <path
           id="path9534"
           class="st32"
           d="m 458.2,147.1 c 0,5.7 4.6,10.3 10.3,10.3 5.7,0 10.3,-4.6 10.3,-10.3 v 0 c 0,-5.8 -4.6,-10.4 -10.3,-10.4 -5.7,0 -10.3,4.6 -10.3,10.3 v 0 z" />
        <path
           id="path9536"
           class="st32"
           d="m 470.4,176.5 c 0,6.1 4.9,11.1 11.1,11.1 6.1,0 11.1,-4.9 11.1,-11.1 v 0 c 0,-6.2 -4.9,-11.2 -11.1,-11.2 -6.1,0 -11.1,4.9 -11.1,11.1 v 0 q 0,0 0,0 z" />
        <path
           id="path9538"
           class="st31"
           d="m 313.1,102 c 0,3 -2.4,5.4 -5.4,5.4 -3,0 -5.4,-2.4 -5.4,-5.4 v 0 c 0,-3 2.4,-5.5 5.4,-5.5 3,0 5.4,2.4 5.4,5.4 0,0 0,0 0,0 z" />
        <path
           id="path9540"
           class="st30"
           d="m 194.7,165.2 c -0.2,3.8 -0.3,9.1 1.3,12 2,3.7 1.9,3.9 4.3,6.4 l 10.1,-16.1 c -1.5,-1.6 -1.8,-1.9 -2.5,-6.3 -2,-14.4 14.4,-25.2 33.8,-27 19.1,-1.7 43.8,-29.2 51.7,-19.7 -2.6,-5.5 -8.2,-6 -15.1,-4.3 -0.2,0 -0.3,0.1 -0.5,0.2 -2.5,1.4 -5.1,3 -7.8,4.7 -2.7,1.7 -5.5,3.5 -8.3,5.2 -2.8,1.7 -5.6,3.4 -8.4,4.9 -2.8,1.5 -5.6,2.8 -8.2,3.8 -1.3,0.5 -2.6,0.9 -3.9,1.2 -1.3,0.3 -2.5,0.5 -3.7,0.7 -2.4,0.2 -4.8,0.6 -7.1,1.2 -2.3,0.6 -4.6,1.3 -6.7,2.1 -2.1,0.8 -4.2,1.8 -6.2,2.8 -2,1 -3.7,2.2 -5.4,3.5 -1.7,1.3 -3.1,2.6 -4.4,4 -1.3,1.4 -2.4,2.8 -3.3,4.3 -0.9,1.5 -1.5,3 -1.9,4.5 -0.4,1.5 -0.5,3.1 -0.4,4.6 0.2,2.2 0.4,3.7 0.6,5 0.2,1.3 0.6,2.4 1.4,3.8 l -5.3,9 c -1,-1.1 -1.8,-2.4 -2.4,-3.9 -0.6,-1.5 -1.1,-3.1 -1.4,-4.8 -0.1,-0.7 -0.2,-1.3 -0.3,-2 z" />
        <path
           id="path9542"
           class="st30"
           d="m 194.7,165.2 c 0.1,0.7 0.2,1.3 0.3,2 0.3,1.7 0.8,3.3 1.4,4.8 0.6,1.5 1.4,2.8 2.4,3.9 l 5.3,-9 c -0.8,-1.4 -1.1,-2.5 -1.4,-3.8 -0.3,-1.3 -0.4,-2.7 -0.6,-5 -0.2,-1.5 0,-3.1 0.4,-4.6 0.4,-1.5 1,-3.1 1.9,-4.5 0.9,-1.4 2,-2.9 3.3,-4.3 1.3,-1.4 2.8,-2.7 4.4,-4 1.6,-1.3 3.4,-2.4 5.4,-3.5 2,-1.1 4,-2 6.2,-2.8 2.2,-0.8 4.4,-1.5 6.7,-2.1 2.3,-0.6 4.7,-1 7.1,-1.2 1.2,-0.1 2.5,-0.3 3.7,-0.7 1.2,-0.4 2.6,-0.7 3.9,-1.2 2.7,-1 5.4,-2.3 8.2,-3.8 2.8,-1.5 5.6,-3.2 8.4,-4.9 2.8,-1.7 5.6,-3.5 8.3,-5.2 2.7,-1.7 5.3,-3.3 7.8,-4.7 0.2,0 0.3,-0.1 0.5,-0.2 -12.4,3 -29.1,13.1 -42,14.9 -19.7,2.7 -45.1,13.7 -41.6,39.6 0,0 0,0.2 0,0.3 z" />
        <path
           id="path9544"
           class="st32"
           d="m 270.9,114.2 c 0,3.4 -2.7,6.1 -6.1,6.1 -3.4,0 -6.1,-2.7 -6.1,-6.1 v 0 c 0,-3.4 2.7,-6.2 6.1,-6.2 3.4,0 6.1,2.7 6.1,6.1 v 0 z" />
        <path
           id="path9546"
           class="st32"
           d="m 254.7,121.5 c 0,4.3 -3.4,7.7 -7.7,7.7 -4.3,0 -7.7,-3.4 -7.7,-7.7 v 0 c 0,-4.3 3.4,-7.8 7.7,-7.8 4.3,0 7.7,3.4 7.7,7.7 0,0 0,0 0,0 z" />
        <path
           id="path9548"
           class="st32"
           d="m 233.8,126.2 c 0,4.3 -3.4,7.7 -7.7,7.7 -4.3,0 -7.7,-3.4 -7.7,-7.7 v 0 c 0,-4.3 3.4,-7.8 7.7,-7.8 4.3,0 7.7,3.4 7.7,7.7 0,0 0,0 0,0 v 0 z" />
        <path
           id="path9550"
           class="st32"
           d="m 214.5,137.3 c 0,5.1 -4.1,9.2 -9.1,9.2 -5,0 -9.2,-4.1 -9.2,-9.1 v 0 c 0,-5.1 4.1,-9.2 9.1,-9.3 5.1,0 9.2,4.1 9.2,9.1 0,0 0,0 0,0 z" />
        <path
           id="path9552"
           class="st32"
           d="m 205,159.7 c 0,6.1 -4.9,11.1 -11.1,11.1 -6.1,0 -11.1,-4.9 -11.1,-11.1 v 0 c 0,-6.2 4.9,-11.2 11.1,-11.2 6.1,0 11.1,4.9 11.1,11.1 v 0 q 0,0 0,0 z" />
        <path
           id="path9554"
           class="st32"
           d="m 285.8,107.4 c 0,2.8 -2.2,5 -5,5 -2.8,0 -5,-2.2 -5,-5 v 0 c 0,-2.8 2.2,-5 5,-5 2.8,0 5,2.2 5,5 z" />
        <path
           id="path9556"
           class="st5"
           d="m 196,162.3 c 0.8,0 3.8,1.1 6.8,2.3 3.5,1.4 6.6,5.5 6.6,5.5 0,0 2.8,-1.1 4.7,-1.4 1.9,-0.3 5,-0.3 5,-0.3 0,0 0.8,1.9 0.5,4.6 -0.3,2.8 0,4.6 -0.7,4.9 0,0 1.3,0.2 3,0.5 1.7,0.3 2.5,1.4 2.5,1.4 0,0 -3.3,3.4 -5.1,4.1 -1.8,0.7 -2.2,0.8 -3.8,1.4 -1.6,0.6 -1.7,3.3 -1.7,3.3 0,0 1.5,-0.2 3.2,-0.7 1.7,-0.5 1.1,-2 3.7,-3.7 2.6,-1.7 9.1,-1.6 9.1,-1.6 0,0 0,2.9 -1.7,5.4 -1.8,2.5 -4.7,2.5 -4.7,2.5 l -0.3,2.4 c 0,0 3,0.4 4.5,-1.1 1.5,-1.4 1.6,-3.4 5,-3.8 3.5,-0.4 4.3,2.3 6.6,3.9 2.2,1.6 5.6,2.6 5.6,2.6 0,0 -2.2,2.7 -3.7,5 -1.8,2.7 -2.1,4.2 -4.5,4.7 -2.3,0.4 -6,-2.1 -6,-2.1 l -2.1,0.4 1.2,2.6 c 0,0 1.5,0 4.5,1.3 3,1.3 4,7.5 4,7.5 0,0 -6.5,1.7 -9.5,0 -3.1,-1.8 -3.7,-4.8 -3.7,-4.8 l -3,-0.3 0.6,3 c 0,0 3.4,1.2 4.9,3.5 1.5,2.3 1.1,3.1 1.6,5.3 0.4,1.6 2.7,3.8 2.7,3.8 0,0 -9.6,0.2 -13.7,-1.1 -11.4,-5.1 -3.6,-5.8 -11.2,2 -3.1,2.6 -11.9,5.7 -11.9,5.7 0,0 0.9,-2.8 0.5,-4.4 -0.6,-2.1 -1.4,-2.7 -1.2,-5.3 0.2,-2.6 2.7,-4.9 2.7,-4.9 l -1,-3 -2.5,1.3 c 0,0 1,2.9 -0.9,5.6 -1.9,2.6 -8.6,3.3 -8.6,3.3 0,0 -2.2,-6 -0.2,-8.2 2.1,-2.2 3.4,-2.7 3.4,-2.7 l -0.3,-2.7 -2.1,0.3 c 0,0 -2.1,3.6 -4.5,4 -2.3,0.4 -3.4,-0.8 -6.4,-2.7 -2.5,-1.6 -5.9,-3.3 -5.9,-3.3 0,0 2.6,-2.1 3.7,-4.3 1.1,-2.2 0.6,-5 4,-5.8 3.2,-0.8 4.4,1 6.5,1.8 2.1,0.8 4.6,-0.6 4.6,-0.6 l -1.5,-2.1 c 0,0 -2.6,1 -5.5,-0.7 -2.9,-1.7 -4.3,-4.4 -4.3,-4.4 0,0 5.9,-2.3 9.1,-1.6 3.2,0.7 3.5,2.2 5.2,2.1 1.7,-0.1 3.3,-0.4 3.3,-0.4 0,0 -1.4,-2.4 -3.2,-2.4 -1.8,0 -2.2,0 -4.2,0 -2,0 -6.7,-1.9 -6.7,-1.9 0,0 0.2,-1.4 1.5,-2.2 1.3,-0.8 2.4,-1.5 2.4,-1.5 -0.7,0 -1.5,-1.8 -3.2,-4.2 -1.7,-2.4 -1.9,-4.4 -1.9,-4.4 0,0 2.8,-1 4.7,-1.4 1.9,-0.4 5,-0.4 5,-0.4 0,0 0.7,-4.8 3.2,-7.2 1.6,-1.5 3.2,-3.4 5.2,-4.4 v 0 z" />
        <path
           id="path9558"
           class="st16"
           d="m 213.4,211.6 c 0,0 1.5,2.3 2.5,3.2 1,0.9 4,2.5 4,2.5" />
        <path
           id="path9560"
           class="st16"
           d="m 216.9,204.3 c 3.5,-0.5 6.6,0.4 9.6,1.5" />
        <path
           id="path9562"
           class="st16"
           d="m 216.2,199.7 c 3.3,-1.3 7.3,-2.2 12.3,-2.5" />
        <path
           id="path9564"
           class="st16"
           d="m 214,194.7 c 0,0 1.5,-2 3.1,-2.7 1.6,-0.8 2.5,-2.1 2.5,-2.1" />
        <path
           id="path9566"
           class="st16"
           d="m 203.3,189 c 0.2,-0.8 -3.1,-11.7 -3.1,-11.7" />
        <path
           id="path9568"
           class="st16"
           d="m 206.9,189.4 c 0,0 0,-0.8 1.1,-3.4 1.2,-2.5 3.1,-4.1 3.1,-4.1" />
        <path
           id="path9570"
           class="st16"
           d="m 205.3,213.1 c 0,0 -0.2,2.6 -0.6,3.8 -0.4,1.2 -2.3,3.6 -2.3,3.6" />
        <path
           id="path9572"
           class="st16"
           d="m 198.4,207.6 c -3.4,0.8 -5.8,2.6 -7.9,4.6" />
        <path
           id="path9574"
           class="st16"
           d="m 196.6,203.2 c -3.6,0 -7.8,0.5 -12.5,1.9" />
        <path
           id="path9576"
           class="st16"
           d="m 196.2,197.9 c 0,0 -2.4,-1.3 -4.2,-1.4 -1.8,-0.1 -3.4,-1.1 -3.4,-1.1" />
        <path
           id="path9578"
           class="st16"
           d="m 199.9,190.6 c 0,0 -0.3,-0.8 -2.7,-2.7 -2.3,-1.9 -4.9,-2.6 -4.9,-2.6" />
        <path
           id="path9580"
           class="st20"
           d="m 215.9,200 c -1.8,-6.9 -7.6,-11.7 -12.8,-10.7 -5.2,0.9 -8,7.2 -6.2,14.1 1.8,6.9 7.6,11.7 12.8,10.7 5.2,-0.9 8,-7.3 6.2,-14.1" />
        <path
           id="path9582"
           class="st24"
           d="m 212.9,200.6 c -1.4,-5.1 -5.4,-8.7 -9,-8.1 -3.6,0.6 -5.4,5.3 -4.1,10.4 1.4,5.1 5.4,8.7 9,8.1 3.6,-0.6 5.4,-5.3 4.1,-10.4" />
        <path
           id="path9584"
           class="st30"
           d="m 401.9,165.2 c 0.2,3.8 0.3,9.1 -1.3,12 -2,3.7 -1.9,3.9 -4.3,6.4 l -10.1,-16.1 c 1.5,-1.6 1.8,-1.9 2.5,-6.3 2,-14.4 -14.4,-25.2 -33.8,-27 -19.1,-1.7 -43.8,-29.2 -51.7,-19.7 2.6,-5.5 8.2,-6 15.1,-4.3 0.2,0 0.3,0.1 0.5,0.2 2.5,1.4 5.1,3 7.8,4.7 2.7,1.7 5.5,3.5 8.3,5.2 2.8,1.7 5.6,3.4 8.4,4.9 2.8,1.5 5.6,2.8 8.2,3.8 1.3,0.5 2.6,0.9 3.9,1.2 1.3,0.3 2.5,0.5 3.7,0.7 2.4,0.2 4.8,0.6 7.1,1.2 2.3,0.6 4.6,1.3 6.7,2.1 2.1,0.8 4.2,1.8 6.2,2.8 2,1 3.7,2.2 5.4,3.5 1.7,1.3 3.1,2.6 4.4,4 1.3,1.4 2.4,2.8 3.3,4.3 0.9,1.5 1.5,3 1.9,4.5 0.4,1.5 0.5,3.1 0.4,4.6 -0.2,2.2 -0.4,3.7 -0.6,5 -0.2,1.3 -0.6,2.4 -1.4,3.8 l 5.3,9 c 1,-1.1 1.8,-2.4 2.4,-3.9 0.6,-1.5 1.1,-3.1 1.4,-4.8 0.1,-0.7 0.2,-1.3 0.3,-2 z" />
        <path
           id="path9586"
           class="st30"
           d="m 401.9,165.2 c -0.1,0.7 -0.2,1.3 -0.3,2 -0.3,1.7 -0.8,3.3 -1.4,4.8 -0.6,1.5 -1.4,2.8 -2.4,3.9 l -5.3,-9 c 0.8,-1.4 1.1,-2.5 1.4,-3.8 0.2,-1.3 0.4,-2.7 0.6,-5 0.2,-1.5 0,-3.1 -0.4,-4.6 -0.4,-1.5 -1,-3.1 -1.9,-4.5 -0.9,-1.4 -2,-2.9 -3.3,-4.3 -1.3,-1.4 -2.8,-2.7 -4.4,-4 -1.6,-1.3 -3.4,-2.4 -5.4,-3.5 -2,-1.1 -4,-2 -6.2,-2.8 -2.2,-0.8 -4.4,-1.5 -6.7,-2.1 -2.3,-0.6 -4.7,-1 -7.1,-1.2 -1.2,-0.1 -2.5,-0.3 -3.7,-0.7 -1.2,-0.4 -2.6,-0.7 -3.9,-1.2 -2.7,-1 -5.4,-2.3 -8.2,-3.8 -2.8,-1.5 -5.6,-3.2 -8.4,-4.9 -2.8,-1.7 -5.6,-3.5 -8.3,-5.2 -2.7,-1.7 -5.3,-3.3 -7.8,-4.7 -0.2,0 -0.3,-0.1 -0.5,-0.2 12.4,3 29.1,13.1 42,14.9 19.7,2.7 45.1,13.7 41.6,39.6 0,0 0,0.2 0,0.3 z" />
        <path
           id="path9588"
           class="st32"
           d="m 325.8,114.2 c 0,3.4 2.7,6.1 6.1,6.1 3.4,0 6.1,-2.7 6.1,-6.1 v 0 c 0,-3.4 -2.7,-6.2 -6.1,-6.2 -3.4,0 -6.1,2.7 -6.1,6.1 v 0 z" />
        <path
           id="path9590"
           class="st32"
           d="m 341.9,121.5 c 0,4.3 3.4,7.7 7.7,7.7 4.3,0 7.7,-3.4 7.7,-7.7 v 0 c 0,-4.3 -3.4,-7.8 -7.7,-7.8 -4.3,0 -7.7,3.4 -7.7,7.7 0,0 0,0 0,0 z" />
        <path
           id="path9592"
           class="st32"
           d="m 362.8,126.2 c 0,4.3 3.4,7.7 7.7,7.7 4.3,0 7.7,-3.4 7.7,-7.7 v 0 c 0,-4.3 -3.4,-7.8 -7.7,-7.8 -4.3,0 -7.7,3.4 -7.7,7.7 0,0 0,0 0,0 z" />
        <path
           id="path9594"
           class="st32"
           d="m 382.2,137.3 c 0,5.1 4.1,9.2 9.1,9.2 5.1,0 9.2,-4.1 9.2,-9.1 v 0 c 0,-5.1 -4.1,-9.2 -9.1,-9.3 -5.1,0 -9.2,4.1 -9.2,9.1 0,0 0,0 0,0 z" />
        <path
           id="path9597"
           class="st32"
           d="m 391.7,159.7 c 0,6.1 4.9,11.1 11.1,11.1 6.1,0 11.1,-4.9 11.1,-11.1 v 0 c 0,-6.2 -4.9,-11.2 -11.1,-11.2 -6.1,0 -11.1,4.9 -11.1,11.1 v 0 q 0,0 0,0 z" />
        <path
           id="path9599"
           class="st32"
           d="m 310.9,107.4 c 0,2.8 2.2,5 5,5 2.8,0 5,-2.2 5,-5 v 0 c 0,-2.8 -2.2,-5 -5,-5 -2.8,0 -5,2.2 -5,5 z" />
        <path
           id="path9601"
           class="st19"
           d="m 290.7,109.4 c -3.1,1.5 -5.5,3.6 -6.2,6.3 -0.9,4.1 -1.4,8.8 -1.5,13.8 0,0.5 0,1 0,1.5 0,0.5 -0.1,1.2 -0.2,1.8 -0.3,10.5 -2.1,19.8 -4.8,25.5 l 20.3,15.3 20,-15.3 c -2.7,-5.7 -4.5,-15 -4.8,-25.5 0,-0.6 -0.2,-1.2 -0.2,-1.8 0,-0.5 0,-1 0,-1.5 -0.1,-5 -0.7,-9.7 -1.5,-13.8 -0.8,-2.7 -3.2,-4.9 -6.2,-6.4 0.2,1.8 0.5,3.6 0.5,5.7 0,0.3 0,0.7 0,1 0,0.4 0,23 0,23.4 0,3.4 0.3,6.5 0.8,9.3 0.4,2.8 1,5.2 1.7,7 l -10.5,9.9 -10.6,-9.9 c 0.7,-1.8 1.3,-4.2 1.7,-7 0.4,-2.8 0.7,-6 0.8,-9.3 0,-0.4 0.1,-23 0.1,-23.4 0,-0.4 0,-0.7 0,-1 0,-2 0.3,-3.8 0.5,-5.6 z" />
        <path
           id="path9603"
           class="st19"
           d="m 290.7,109.4 c -0.2,1.8 -0.5,3.6 -0.5,5.6 0,0.3 0,0.7 0,1 0,0.3 0,23 -0.1,23.4 0,3.4 -0.3,6.5 -0.8,9.3 -0.5,2.8 -1,5.2 -1.7,7 l 10.6,9.9 10.5,-9.9 c -0.7,-1.8 -1.3,-4.2 -1.7,-7 -0.4,-2.8 -0.7,-6 -0.8,-9.3 0,-0.4 0,-23 0,-23.4 0,-0.3 0,-0.7 0,-1 0,-2.1 -0.3,-3.8 -0.5,-5.7 -2.2,-1 -4.6,-1.7 -7.4,-1.7 v 0 c -2.8,0 -5.3,0.7 -7.6,1.8 z" />
        <path
           id="path9605"
           class="st31"
           d="m 292.8,103.1 c 0,3 2.4,5.4 5.4,5.4 3,0 5.4,-2.4 5.4,-5.4 v 0 c 0,-3 -2.4,-5.4 -5.4,-5.5 -3,0 -5.4,2.4 -5.4,5.4 0,0 0,0 0,0 z" />
        <path
           id="path9607"
           class="st32"
           d="m 304.3,112.5 c 0,3.4 -2.7,6.1 -6.1,6.1 -3.4,0 -6.1,-2.7 -6.1,-6.1 v 0 c 0,-3.4 2.7,-6.2 6.1,-6.2 3.4,0 6.1,2.7 6.1,6.1 v 0 z" />
        <path
           id="path9609"
           class="st32"
           d="m 305.5,121.4 c 0,4.1 -3.3,7.4 -7.3,7.4 -4.1,0 -7.4,-3.3 -7.4,-7.3 v 0 c 0,-4.1 3.3,-7.4 7.3,-7.4 4.1,0 7.4,3.3 7.4,7.3 z" />
        <path
           id="path9611"
           class="st32"
           d="m 307,132.8 c 0,4.9 -3.9,8.8 -8.8,8.8 -4.9,0 -8.8,-3.9 -8.8,-8.8 v 0 c 0,-4.9 3.9,-8.9 8.8,-8.9 4.9,0 8.8,3.9 8.8,8.8 v 0 c 0,0 0,0 0,0 z" />
        <path
           id="path9613"
           class="st32"
           d="m 308.3,145.4 c 0,5.6 -4.5,10.2 -10.1,10.2 -5.6,0 -10.2,-4.5 -10.2,-10.1 v 0 c 0,-5.6 4.5,-10.2 10.1,-10.2 5.6,0 10.2,4.5 10.2,10.1 z" />
        <path
           id="path9615"
           class="st5"
           d="m 400.4,162.3 c -0.8,0 -3.8,1.1 -6.8,2.3 -3.5,1.4 -6.6,5.5 -6.6,5.5 0,0 -2.8,-1.1 -4.7,-1.4 -1.9,-0.3 -5,-0.3 -5,-0.3 0,0 -0.8,1.9 -0.5,4.6 0.3,2.8 0,4.6 0.7,4.9 0,0 -1.3,0.2 -3,0.5 -1.7,0.3 -2.5,1.4 -2.5,1.4 0,0 3.3,3.4 5.1,4.1 1.8,0.7 2.2,0.8 3.8,1.4 1.6,0.6 1.7,3.3 1.7,3.3 0,0 -1.5,-0.2 -3.2,-0.7 -1.6,-0.5 -1.1,-2 -3.7,-3.7 -2.6,-1.7 -9.1,-1.6 -9.1,-1.6 0,0 0,2.9 1.7,5.4 1.8,2.5 4.7,2.5 4.7,2.5 l 0.3,2.4 c 0,0 -3,0.4 -4.5,-1.1 -1.5,-1.4 -1.6,-3.4 -5,-3.8 -3.5,-0.4 -4.3,2.3 -6.6,3.9 -2.2,1.6 -5.6,2.6 -5.6,2.6 0,0 2.2,2.7 3.7,5 1.8,2.7 2.1,4.2 4.5,4.7 2.3,0.4 6,-2.1 6,-2.1 l 2.1,0.4 -1.2,2.6 c 0,0 -1.5,0 -4.5,1.3 -3,1.3 -4,7.5 -4,7.5 0,0 6.5,1.7 9.5,0 3.1,-1.8 3.7,-4.8 3.7,-4.8 l 3,-0.3 -0.6,3 c 0,0 -3.4,1.2 -4.9,3.5 -1.5,2.3 -1.1,3.1 -1.6,5.3 -0.4,1.6 -2.7,3.8 -2.7,3.8 0,0 9.6,0.2 13.7,-1.1 11.4,-5.1 3.6,-5.8 11.2,2 3.1,2.6 11.9,5.7 11.9,5.7 0,0 -0.9,-2.8 -0.5,-4.4 0.6,-2.1 1.4,-2.7 1.2,-5.3 -0.2,-2.6 -2.7,-4.9 -2.7,-4.9 l 1,-3 2.5,1.3 c 0,0 -1,2.9 0.9,5.6 1.9,2.6 8.6,3.3 8.6,3.3 0,0 2.2,-6 0.2,-8.2 -2,-2.2 -3.4,-2.7 -3.4,-2.7 l 0.3,-2.7 2.1,0.3 c 0,0 2.1,3.6 4.5,4 2.3,0.4 3.4,-0.8 6.4,-2.7 2.5,-1.6 5.9,-3.3 5.9,-3.3 0,0 -2.6,-2.1 -3.7,-4.3 -1.1,-2.2 -0.6,-5 -4,-5.8 -3.2,-0.8 -4.4,1 -6.5,1.8 -2.1,0.8 -4.6,-0.6 -4.6,-0.6 l 1.5,-2.1 c 0,0 2.6,1 5.5,-0.7 2.9,-1.7 4.3,-4.4 4.3,-4.4 0,0 -5.9,-2.3 -9.1,-1.6 -3.2,0.7 -3.5,2.2 -5.2,2.1 -1.7,-0.1 -3.3,-0.4 -3.3,-0.4 0,0 1.4,-2.4 3.2,-2.4 1.8,0 2.2,0 4.2,0 2,0 6.7,-1.9 6.7,-1.9 0,0 -0.2,-1.4 -1.5,-2.2 -1.3,-0.8 -2.4,-1.5 -2.4,-1.5 0.7,0 1.5,-1.8 3.2,-4.2 1.7,-2.4 1.9,-4.4 1.9,-4.4 0,0 -2.8,-1 -4.7,-1.4 -1.9,-0.4 -5,-0.4 -5,-0.4 0,0 -0.7,-4.8 -3.2,-7.2 -1.6,-1.5 -3.2,-3.4 -5.2,-4.4 v 0 z" />
        <path
           id="path9617"
           class="st16"
           d="m 383,211.6 c 0,0 -1.5,2.3 -2.5,3.2 -1,0.9 -4,2.5 -4,2.5" />
        <path
           id="path9619"
           class="st16"
           d="m 379.5,204.3 c -3.5,-0.5 -6.6,0.4 -9.6,1.5" />
        <path
           id="path9621"
           class="st16"
           d="m 380.2,199.7 c -3.3,-1.3 -7.3,-2.2 -12.3,-2.5" />
        <path
           id="path9623"
           class="st16"
           d="m 382.4,194.7 c 0,0 -1.5,-2 -3.1,-2.7 -1.6,-0.7 -2.5,-2.1 -2.5,-2.1" />
        <path
           id="path9625"
           class="st16"
           d="m 393.1,189 c -0.2,-0.8 3.1,-11.7 3.1,-11.7" />
        <path
           id="path9627"
           class="st16"
           d="m 389.5,189.4 c 0,0 0,-0.8 -1.1,-3.4 -1.2,-2.5 -3.1,-4.1 -3.1,-4.1" />
        <path
           id="path9629"
           class="st16"
           d="m 391,213.1 c 0,0 0.2,2.6 0.6,3.8 0.4,1.1 2.3,3.6 2.3,3.6" />
        <path
           id="path9631"
           class="st16"
           d="m 398,207.6 c 3.4,0.8 5.8,2.6 7.9,4.6" />
        <path
           id="path9633"
           class="st16"
           d="m 399.7,203.2 c 3.6,0 7.8,0.5 12.5,1.9" />
        <path
           id="path9635"
           class="st16"
           d="m 400.2,197.9 c 0,0 2.4,-1.3 4.2,-1.4 1.9,-0.1 3.4,-1.1 3.4,-1.1" />
        <path
           id="path9637"
           class="st16"
           d="m 396.5,190.6 c 0,0 0.3,-0.8 2.7,-2.7 2.3,-1.9 4.9,-2.6 4.9,-2.6" />
        <path
           id="path9639"
           class="st20"
           d="m 380.5,200 c 1.8,-6.9 7.6,-11.7 12.8,-10.7 5.2,0.9 8,7.2 6.2,14.1 -1.8,6.9 -7.6,11.7 -12.8,10.7 -5.2,-0.9 -8,-7.3 -6.2,-14.1" />
        <path
           id="path9641"
           class="st24"
           d="m 383.5,200.6 c 1.4,-5.1 5.4,-8.7 9,-8.1 3.6,0.6 5.4,5.3 4.1,10.4 -1.4,5.1 -5.4,8.7 -9,8.1 -3.6,-0.6 -5.4,-5.3 -4.1,-10.4" />
        <path
           id="path9643"
           class="st5"
           d="m 298.1,153.7 c -0.7,0.2 -3.5,1.7 -6.2,3.4 -3.1,2 -5.1,6.5 -5.1,6.5 0,0 -3.1,-0.5 -5.1,-0.5 -2,0 -5.1,0.5 -5.1,0.5 0,0 -0.3,2 0.7,4.6 1,2.6 1.3,4.4 2,4.6 0,0 -1.3,0.5 -2.8,1 -1.5,0.5 -2.1,1.8 -2.1,1.8 0,0 4.2,2.7 6.2,3.1 2,0.4 2.4,0.4 4.2,0.7 1.8,0.4 2.6,2.9 2.6,2.9 0,0 -1.6,0 -3.4,-0.1 -1.8,-0.2 -1.6,-1.7 -4.6,-2.9 -3,-1.2 -9.5,0 -9.5,0 0,0 0.8,2.8 3.2,5 2.4,2.2 5.3,1.6 5.3,1.6 l 0.9,2.3 c 0,0 -2.9,0.9 -4.8,-0.3 -1.9,-1.2 -2.5,-3.1 -6,-2.9 -3.6,0.2 -3.7,3 -5.5,5 -1.8,2 -4.9,3.5 -4.9,3.5 0,0 2.9,2.3 5,4.2 2.5,2.4 3.3,3.8 5.7,3.8 2.4,0 5.5,-3.1 5.5,-3.1 h 2.2 c 0,0 -0.5,2.8 -0.5,2.8 0,0 -1.5,0.2 -4.1,2 -2.6,1.8 -2,8.1 -2,8.1 0,0 6.9,0.5 9.4,-1.7 2.6,-2.3 2.4,-5.3 2.4,-5.3 l 2.9,-0.9 0.3,3.1 c 0,0 -3.1,1.7 -4,4.3 -0.9,2.5 -0.3,3.3 -0.2,5.4 0,1.6 -1.6,4.2 -1.6,4.2 0,0 9.6,-1.5 13.3,-3.5 10,-6.9 2,-6.3 11.7,0 3.8,2 13.3,3.5 13.3,3.5 0,0 -1.7,-2.6 -1.6,-4.2 0,-2.2 0.6,-2.9 -0.2,-5.4 -0.8,-2.5 -4,-4.3 -4,-4.3 l 0.3,-3.1 2.9,0.9 c 0,0 -0.2,3 2.4,5.3 2.5,2.2 9.4,1.7 9.4,1.7 0,0 0.6,-6.3 -2,-8.1 -2.6,-1.8 -4.1,-2 -4.1,-2 l -0.5,-2.7 h 2.2 c 0,0 3.1,3.1 5.5,3.1 2.4,0 3.1,-1.4 5.7,-3.8 2.1,-2 5,-4.2 5,-4.2 0,0 -3.1,-1.6 -4.9,-3.5 -1.8,-1.9 -1.9,-4.8 -5.5,-5 -3.4,-0.2 -4.1,1.7 -6,2.9 -1.9,1.2 -4.8,0.3 -4.8,0.3 l 0.9,-2.3 c 0,0 2.9,0.5 5.3,-1.6 2.4,-2.1 3.2,-5 3.2,-5 0,0 -6.5,-1.2 -9.5,0 -3,1.2 -2.9,2.8 -4.6,2.9 -1.7,0.1 -3.4,0.1 -3.4,0.1 0,0 0.8,-2.6 2.6,-2.9 1.8,-0.3 2.2,-0.4 4.2,-0.7 2,-0.4 6.2,-3.1 6.2,-3.1 0,0 -0.6,-1.3 -2.1,-1.8 -1.5,-0.5 -2.8,-1 -2.8,-1 0.7,-0.2 1,-2 2,-4.6 1,-2.6 0.7,-4.6 0.7,-4.6 0,0 -3.1,-0.5 -5.1,-0.5 -2,0 -5.1,0.5 -5.1,0.5 0,0 -2,-4.5 -5.1,-6.5 -2,-1.2 -4.1,-2.7 -6.4,-3.4 z" />
        <path
           id="path9645"
           class="st16"
           d="m 293.8,204.9 c 0,0 -0.9,2.5 -1.6,3.6 -0.7,1 -3.3,3.1 -3.3,3.1" />
        <path
           id="path9647"
           class="st16"
           d="m 288.4,198.4 c -3.6,0.2 -6.5,1.6 -9.1,3.1" />
        <path
           id="path9649"
           class="st16"
           d="m 297.8,181 c -0.4,-0.7 0,-12 0,-12" />
        <path
           id="path9651"
           class="st16"
           d="m 287.8,193.7 c -3.6,-0.7 -7.9,-0.8 -13,-0.3" />
        <path
           id="path9653"
           class="st16"
           d="m 288.7,188.5 c 0,0 -2,-1.6 -3.8,-2.1 -1.8,-0.5 -3.1,-1.6 -3.1,-1.6" />
        <path
           id="path9655"
           class="st16"
           d="m 294.4,182 c 0,0 -0.1,-0.8 -2,-3.1 -1.8,-2.2 -4.2,-3.4 -4.2,-3.4" />
        <path
           id="path9657"
           class="st16"
           d="m 302.2,204.9 c 0,0 0.9,2.5 1.6,3.6 0.7,1 3.3,3.1 3.3,3.1" />
        <path
           id="path9659"
           class="st16"
           d="m 307.7,198.4 c 3.6,0.2 6.5,1.6 9.1,3.1" />
        <path
           id="path9661"
           class="st16"
           d="m 308.3,193.7 c 3.6,-0.7 7.9,-0.8 13,-0.3" />
        <path
           id="path9663"
           class="st16"
           d="m 307.3,188.5 c 0,0 2,-1.6 3.8,-2.1 1.8,-0.5 3.1,-1.6 3.1,-1.6" />
        <path
           id="path9665"
           class="st16"
           d="m 301.7,182 c 0,0 0.1,-0.8 2,-3.1 1.8,-2.2 4.2,-3.4 4.2,-3.4" />
        <path
           id="path9667"
           class="st20"
           d="m 288.2,194 c 0,-7 4.5,-12.7 9.9,-12.7 5.4,0 10,5.7 10,12.7 0,7 -4.5,12.7 -10,12.7 -5.5,0 -9.9,-5.7 -9.9,-12.7" />
        <path
           id="path9669"
           class="st24"
           d="m 291.4,194 c 0,-5.2 3.1,-9.4 6.8,-9.4 3.7,0 6.8,4.2 6.8,9.4 0,5.2 -3.1,9.5 -6.8,9.5 -3.7,0 -6.8,-4.2 -6.8,-9.5" />
      </g>
      <path
         id="path4560"
         class="st10"
         d="m 106.6,310.2 c 0.2,92.3 -0.3,184.7 0.2,277 2.9,82.9 66.4,158.5 147.4,176 C 329.1,781.5 413,748.6 455.3,684 480.6,647.8 490,603 487.9,559.5 V 310.2 Z" />
    </g>
    <g
       id="Capa_3">
      <path
         class="st8"
         d="m 285.6,564 h -19.8 l -7.2,1 -39.8,9 c 0,0 -5.9,4.1 1.6,6.4 v 29.5 c 0,0 -4.5,4.7 -4.5,4.7 v 7.1 l -4.8,5.6 v 8.8 l 1.1,0.8 44.8,20.4 h 79.7 c 0,0 45.9,-21.2 45.9,-21.2 v -8.8 c 0,0 -4.8,-5.6 -4.8,-5.6 v -7.1 c 0,0 -4.4,-4.7 -4.4,-4.7 V 580 c 0,0 2.8,-1.3 2.8,-1.3 0,0 3.9,-2 -1.9,-5 l -40.4,-9 -5.9,-0.7 h -19.8 c 0,0 0.4,-24.4 0.4,-24.4 l 2.8,-1.3 v -3.7 c 0,0 13.1,-8.9 13.7,-11.4 l 4.7,-3.3 c 0,0 -18.4,-2.8 -27.3,-2.8 l -0.3,-8.9 -3.1,-6.5 c 0,0 6.2,-4.3 0,-8.7 0,0 -6.8,-1.1 -6.8,4.3 0,0 0.2,2.9 2.8,4.4 l -3,6.2 0.2,9 c 0,0 -25.8,1.2 -28.6,2.7 0,0 5.7,3.2 7.7,6.2 0,0 8.9,8 11.2,8.7 v 3.8 c 0.1,0 2.9,0.7 2.9,0.7 l 0.4,24.8 z"
         id="path3" />
      <path
         class="st0"
         d="m 308,568.6 h 22.4 c 0,0 0.9,7.1 0.9,9.1 h 2.9 c 0,0.1 -0.3,-8 -0.3,-8 l 24.3,5.7 -31,9.1 L 311,584 v -6.3 c 0,0 -3.1,-2.6 -3.1,-2.6 v -6.4 z"
         id="path4" />
      <path
         class="st0"
         d="m 285.5,568.6 h -22.4 c 0,0 -0.9,7.1 -0.9,9.1 h -2.9 c 0,0.1 0.3,-8 0.3,-8 l -24.3,5.7 31,9.1 16.2,-0.5 v -6.3 c 0,0 3.1,-2.6 3.1,-2.6 v -6.4 z"
         id="path5" />
      <path
         class="st3"
         d="m 379.1,623.2 3.4,4.2 v 8.7 c 0,0 -45.8,21.2 -45.8,21.2 H 257 c 0,0 -45.7,-20.6 -45.7,-20.6 v -8.8 l 4.7,-6.2 -0.2,-5.1 -1.7,-1.5 -53.8,6.6 -3.3,5.7 -0.7,2.5 c 0,0 -11.2,-0.3 -23.6,-5.7 l -18.4,6.9 2.5,7.7 c 0,0 11.3,29.7 22.8,45 11.6,15.2 10.1,16.4 39.1,42.3 0,0 26.1,21.9 60.6,32.6 34.5,10.7 66.3,8.9 66.3,8.9 0,0 36.4,-2.3 66.9,-15.8 30.5,-13.5 49.1,-28.2 60.7,-41.2 11.6,-13 31,-36.2 38.5,-56.8 7.5,-20.6 7.6,-22.8 7.6,-22.8 l -18.2,-7.1 c 0,0 -17.8,7.9 -23.4,5.8 l -1.8,-5.8 -55.2,-2.6 -1.7,2 z"
         id="path6" />
    </g>
    <g
       id="Capa_2">
      <path
         id="path45601"
         data-name="path4560"
         class="st9"
         d="m 106.1,310.2 c 0.2,92.3 -0.3,184.7 0.2,277 2.9,82.9 66.4,158.5 147.4,176 74.9,18.3 158.8,-14.6 201.1,-79.2 25.3,-36.2 34.7,-81 32.6,-124.5 V 310.2 Z" />
      <path
         class="st9"
         d="m 114.3,631 c 0,0 16,-5.9 17.9,-7 1.9,-1.1 20.6,12.1 34.7,2.2 0,0 19.7,3.2 25,0.3 0,0 8,3.7 10.9,3.7 2.9,0 8.9,6.5 8.9,6.5 l 45.3,20.6 h 80.2"
         id="path7" />
      <path
         class="st9"
         d="m 297.4,517.2 c 0,0 -18,-0.3 -33.9,2.6 0,0 4.3,1.7 6.6,5.1 2.3,3.4 12.4,9.8 12.4,9.8 v 3.8 l 2.8,0.7 0.5,36.1 -3.1,2.3 v 6.8 h -16.2 l -31.4,-9.2 24.7,-5.6"
         id="path8" />
      <line
         class="st15"
         x1="263.10001"
         y1="568.70001"
         x2="285.70001"
         y2="568.59998"
         id="line8" />
      <polyline
         class="st9"
         points="285.6 564 266.1 564 263.5 564.2"
         id="polyline8" />
      <polyline
         class="st13"
         points="260.4 564.6 219.9 573.8 264 589.2 297.4 589.2"
         id="polyline9" />
      <path
         class="st9"
         d="m 220.2,573.8 c 0,0 -7.6,3.9 0.3,6.2 7.9,2.3 43,14 43,14 h 67"
         id="path9" />
      <polyline
         class="st9"
         points="265.5 594.4 265.5 633 264.8 633.5 264.8 641 263.4 641 256.8 647.7 257 657.3"
         id="polyline10" />
      <polyline
         class="st9"
         points="211.1 636.1 211.1 627.3 216 621.6 216 614.6 220.4 609.9 220.4 580"
         id="polyline11" />
      <polyline
         class="st9"
         points="216.2 614.6 264.8 633.5 328.9 633.5 377.4 614.6"
         id="polyline12" />
      <line
         class="st15"
         x1="216.10001"
         y1="621.59998"
         x2="263.39999"
         y2="641"
         id="line12" />
      <polyline
         class="st9"
         points="211.2 627.4 256.8 647.7 336.9 647.7 382.5 627.4"
         id="polyline13" />
      <polyline
         class="st9"
         points="291.7 517 291.7 508.2 294.9 502.2"
         id="polyline14" />
      <circle
         class="st15"
         cx="296.89999"
         cy="497.39999"
         r="4.8000002"
         id="circle14" />
      <polygon
         class="st2"
         points="268.8,534.6 270.1,535.9 276.4,529.3 274.8,528 "
         id="polygon14" />
      <path
         class="st6"
         d="m 268.8,535.2 c 0,0 -8.9,13 -9.4,42.6 h 2.9 c 0,0 0.3,-24.1 7.3,-41.9"
         id="path14" />
      <path
         class="st7"
         d="m 156.9,627.4 c 0,0 2,-11.3 16.3,-11 14.3,0.3 9.5,-46.3 9.5,-46.3 0,0 -2,-16.3 -6.6,-21.8 -4.6,-5.5 -7.5,-5.6 -9.7,-12.4 0,0 -0.7,-4.4 0.2,-7.1 0,0 -3.6,1.4 -8,-10.9 0,0 -12.5,-1.5 -18.6,-20.5 0,0 -3.2,5.6 -3.4,7.8 -0.2,2.2 -2,1.8 -2.6,0 -0.6,-1.8 -1,-3 -1,-3 0,0 -1.5,-0.6 -1.9,-3.3 -0.4,-2.7 -2.4,3.8 -2.4,3.8 0,0 -2,4.6 0,5.9 2,1.3 -1.8,1.5 -1.8,1.5 0,0 0.1,7.1 -2.4,5 -2.5,-2.1 -2.4,-5 -2.4,-5 0,0 2,-0.5 0.5,-5 0,0 -5.5,0.9 -5.6,-6 0,0 -1.9,-1.5 -1.1,-6.5 0.8,-5 -0.9,-9.4 -0.9,-9.4 0,0 -1.8,-3.6 0.9,-4.2 0,0 -2.2,-2 2.4,-3.8 0,0 0.1,-2.3 -3.3,-4.9 0,0 -1.7,-4 2.4,-4.9 4.1,-0.9 -0.5,-8.3 -0.5,-8.3 0,0 4.2,-2.7 6,-6.9 0,0 -2.8,-13 5.1,-9.3 0,0 3.7,-6.5 6.8,-3.1 0,0 -0.1,-3.4 2.6,-3.6 0,0 4.3,-4.2 5.9,2.8 0,0 1.4,2.8 3.8,3.2 2.4,0.4 2.8,1.5 2.8,1.5 0,0 9.1,-3.1 6.1,8.3 0,0 1.5,4.1 4.7,3.8 0,0 1,4.6 0.6,6.1 -0.4,1.5 3.1,4.7 3.1,4.7 0,0 4.5,1.4 -0.1,-5.7 0,0 -1.5,-5.6 0.9,-7.4 0,0 -6.3,-5 -3.8,-8.3 0,0 -4.6,0 -0.5,-7.1 0,0 -0.6,-3.6 -5.4,-5.2 0,0 -1.3,-4.5 4.2,-4.2 5.5,0.3 4.2,-3.7 4.2,-3.7 0,0 -0.6,-4 1.5,-5.7 0,0 -1.1,-4.2 -6.5,-2.9 0,0 -5.6,-4.3 2.7,-5.7 0,0 2.9,-4.7 6.9,-4.9 0,0 2,-2.2 2.7,-4 0,0 1.9,2.2 4.6,1.7 2.7,-0.5 3.1,1.4 3.1,1.4 0,0 1.4,-1.8 3.1,-0.4 0,0 -1.1,-8.3 5.9,-1.8 0,0 5.4,-3.8 9.6,3.6 0,0 6.4,-2.2 6,9.3 0,0 1.3,3.2 2.8,4 1.5,0.8 0,4 0,4 0,0 -0.9,2.7 0.7,3.4 1.6,0.7 2,2.8 2.1,4.3 0.1,1.5 2.9,-0.4 2.9,-0.4 0,0 0.3,6.3 2.9,5.1 2.6,-1.2 0,-6.8 0,-6.8 0,0 0,-4.5 2,-6.4 2,-1.9 -3.4,-6 -3.4,-6 0,0 6,-2.2 9.3,0.3 3.3,2.5 -1.1,-6.1 -1.1,-6.1 0,0 -4.6,-5.1 -5.9,-4.7 -1.3,0.4 5.9,-8 11.1,3.4 0,0 1.3,2.7 2.3,-2.4 0,0 0.8,-1.8 3.4,-1.4 0,0 5,-1.4 2.3,4.3 0,0 -3.4,1.4 -1.9,4.6 1.5,3.2 0.9,6.4 4.2,2.9 3.3,-3.5 4.5,-0.3 4.5,-0.3 0,0 0.4,2.4 2.9,5.4 0,0 -0.8,-7.1 2.8,-9 0,0 2.3,-0.1 2.2,4.5 0,0 2.3,1.9 1.3,4.4 0,0 -1.3,5 -0.8,6.1 0,0 8.7,-3.4 7.5,10.1 0,0 1.8,3.4 4.6,3.7 2.8,0.3 6.5,0.3 6.8,7.3 0,0 -3.2,-1.1 -4.6,0.5 -1.4,1.6 3.4,6 3.4,6 0,0 2.2,4.2 0.3,6.5 -1.9,2.3 0.9,3.1 0.9,3.1 0,0 -1.3,1 -1,2.3 0.3,1.3 3.2,3.3 1,8.2 0,0 -3.1,-0.6 -3.4,1 -0.3,1.6 -0.8,7.1 -5.6,8.4 0,0 3.7,7 -0.3,11.5 0,0 -6.5,-3.7 -5.6,-6.4 0,0 1.4,7.7 -2.7,5.4 -4.1,-2.3 -4.1,-4.7 -4.1,-4.7 0,0 -2.8,0 -1.7,-3.2 0,0 -3.8,-4.5 -0.6,-7.1 0,0 -5.5,0 -5,-3.1 0,0 -6.5,-0.6 -13,5.1 -6.5,5.7 -13.7,13.1 -18,28 0,0 7.5,2 7.3,-5.6 0,0 0.8,-4.2 4.7,-2.8 0,0 1.8,-3.8 5.1,-1.7 0,0 2.2,-2.6 3.6,-1.3 0,0 2.7,-2 1.5,-4.1 0,0 4.9,-1.5 5.2,8 0,0 1.8,-5.6 3.6,-4.4 0,0 3.2,1.7 2.2,5.9 0,0 2.9,1.7 3.1,0 0,0 3.6,6 0.3,8 0,0 -5.5,-2.6 -4.3,7.8 0,0 4.2,-0.1 3.4,4.3 -0.8,4.4 -5.1,3.2 -5.1,3.2 0,0 -10.3,13.8 -15.6,13.9 -5.3,0.1 -3.3,-7.3 -3.3,-7.3 0,0 -5,-7.3 -1.1,-10.5 0,0 -11.6,-3.7 -15.6,7.7 -4,11.4 2.6,44.8 2.6,44.8 0,0 1.7,3.4 0.4,7.3 -1.3,3.9 -0.4,12.8 -0.4,12.8 0,0 4.5,18.4 9.5,20.8"
         id="path15" />
      <path
         class="st9"
         d="m 183.3,627.3 c 0,0 1.6,-9.2 3.8,-14.8"
         id="path16" />
      <line
         class="st15"
         x1="191.89999"
         y1="625.79999"
         x2="192.60001"
         y2="614"
         id="line16" />
      <line
         class="st15"
         x1="202.60001"
         y1="627.79999"
         x2="200.5"
         y2="612.40002"
         id="line17" />
      <path
         class="st9"
         d="m 210.5,629.2 c 0,0 -3.6,-11.7 -3.1,-15.2 0.5,-3.5 -4.2,-14.9 -4.2,-14.9 0,0 -0.9,-3.2 0,-7"
         id="path17" />
      <path
         class="st9"
         d="m 188.4,570.8 c 0,0 -1.4,-14 -4.1,-20.1"
         id="path18" />
      <path
         class="st9"
         d="m 196.9,570.1 c 0,0 -2,-18.6 -6.6,-25.4"
         id="path19" />
      <path
         class="st9"
         d="m 189.8,559.8 c 0,0 -0.4,-27.1 0,-29.1"
         id="path20" />
      <path
         class="st9"
         d="m 193.1,536 c 0,0 8.5,-2.9 3.1,-14.4 0,0 -2.9,-3 2.4,-8.8 0,0 2.3,-5.4 1.1,-16.3"
         id="path21" />
      <path
         class="st9"
         d="m 145.7,500.2 c 0,0 3.4,7.2 8,8.5 0,0 3.1,1.4 4.7,3.8"
         id="path22" />
      <path
         class="st10"
         d="m 142.2,487.7 c 0,0 -3.1,-2.6 1.9,-3 5,-0.4 8.4,-7.7 8.4,-7.7 0,0 3.1,7.2 1.4,12.3 0,0 3.1,4.1 1.5,7.2 0,0 0.7,6.7 -2.9,4.3 -3.6,-2.4 -10.3,-13.2 -10.3,-13.2 z"
         id="path23" />
      <path
         class="st9"
         d="m 128.8,491.5 c 0,0 -0.8,-2.9 0,-3.8"
         id="path24" />
      <path
         class="st9"
         d="m 126.3,477 c 0,0 4.2,1.5 5,7.1"
         id="path25" />
      <path
         class="st9"
         d="m 129.8,465.8 c 0,0 7.2,-2 8.8,0.9"
         id="path26" />
      <path
         class="st9"
         d="m 139.6,456.3 c 0,0 0.2,-3.5 4.7,-1.8"
         id="path27" />
      <line
         class="st15"
         x1="138.60001"
         y1="448.39999"
         x2="139.10001"
         y2="451.29999"
         id="line27" />
      <path
         class="st9"
         d="m 129.8,444.4 c 0,0 4,0.9 4.4,-2"
         id="path28" />
      <path
         class="st9"
         d="m 151.3,462.2 c 0,0 9.5,3.1 12.9,8.9 3.4,5.8 -4.1,4.9 -4.1,4.9 0,0 -4.8,-1.4 -5.2,-3.1"
         id="path29" />
      <path
         class="st10"
         d="m 163.4,476.2 c 0,0 -1.6,8.1 2,11.5 0,0 -0.4,1 -1.2,1.2 0,0 -0.4,4.4 -1.2,5.2 -0.8,0.8 -2.4,14.4 6.9,20.8 0,0 2.7,4.7 4.1,10.6 1.4,5.9 6.6,8.3 6.6,8.3 0,0 1,1.2 4.3,-3.9 3.3,-5.1 3.1,-11.2 7.4,-16.8 0,0 2.8,-8.1 0,-12.2 -2.8,-4.1 -11.6,-10.9 -10.7,-41.5 0,0 -7.7,2.6 -4.2,14.3 0,0 -6.1,0.5 -9.3,-7.1 0,0 -2.2,-1.4 -2,0.9 0,0 0.8,3.6 -1,4.3"
         id="path30" />
      <path
         class="st9"
         d="m 194.4,496.6 c 0,0 -4.4,-5 -5.7,-10"
         id="path31" />
      <path
         class="st9"
         d="m 189.7,483.4 c 0,0 -2.3,-3.2 -2.5,-7.9"
         id="path32" />
      <path
         class="st9"
         d="m 194.6,449.2 c 0,0 -5.4,-0.9 -6.7,2.8"
         id="path33" />
      <path
         class="st9"
         d="m 185.9,444.1 c 0,0 1.8,3.6 3.8,4.3"
         id="path34" />
      <path
         class="st9"
         d="m 186.6,455.1 c 0,0 2.1,7.6 5.3,7.8"
         id="path35" />
      <path
         class="st9"
         d="m 173.3,460.4 c 0,0 0.4,-2.5 2.7,-4.1"
         id="path36" />
      <path
         class="st9"
         d="m 174.3,444.5 c 0,0 2.4,2.5 4.6,2.6"
         id="path37" />
      <path
         class="st9"
         d="m 181.8,459 c 0,0 0.4,-14 -0.5,-17.9"
         id="path38" />
      <path
         class="st9"
         d="m 186.6,429.5 c 0,0 1.6,0.3 2.7,-2.2 0,0 5.3,0.6 5.3,-4.1 0,0 1.8,5.4 5.4,5.9"
         id="path39" />
      <path
         class="st9"
         d="m 180.1,406.4 c 0,0 0.2,6.9 -1.6,7.6"
         id="path40" />
      <path
         class="st9"
         d="m 215.1,468.3 c 0,0 0,14.2 -5.1,17.8"
         id="path41" />
      <path
         class="st9"
         d="m 216.5,479.5 c 0,0 2,-3.6 5.9,-4.7"
         id="path42" />
      <path
         class="st10"
         d="m 227.4,448 c 0,0 -8.9,15.9 -4.9,20.3 4,4.4 11.7,-3.7 11.7,-3.7 0,0 0.8,-6.2 3,-7.2 0,0 -0.4,-5.6 -4.9,-5.4 0,0 -4.9,-0.3 -4.6,-3.6"
         id="path43" />
      <path
         class="st9"
         d="m 221,436.2 c 0,0 4.4,-5.4 8.3,2.8"
         id="path44" />
      <path
         class="st9"
         d="m 231.1,420.9 c 0,0 -1.8,3.9 -3.7,4.2"
         id="path45" />
      <path
         class="st9"
         d="m 246.1,428.4 c 0,0 0.8,2.1 0.9,3.4"
         id="path46" />
      <path
         class="st9"
         d="m 247,435.8 c 0,0 -4.4,5.7 -2.1,7.6"
         id="path47" />
      <path
         class="st9"
         d="m 251.6,442.9 c 0,0 3.8,-0.9 4.9,-4.4"
         id="path48" />
      <path
         class="st9"
         d="m 236,464.3 c 0,0 5.2,1.1 6.6,-3.1"
         id="path49" />
      <path
         class="st9"
         d="m 249.3,455.1 c 0,0 4.5,7.6 -3.7,11.1 0,0 -8.3,4.1 -5.8,10.2"
         id="path50" />
      <path
         class="st9"
         d="m 246.6,473 c 0,0 7,1.7 4.3,10.4 0,0 -3.5,3.5 -2.9,4.9"
         id="path51" />
      <path
         class="st9"
         d="m 254.8,474.3 c 0,0 0.3,4.3 4,4.2"
         id="path52" />
      <line
         class="st15"
         x1="262.29999"
         y1="461.10001"
         x2="264.29999"
         y2="464.39999"
         id="line52" />
      <path
         class="st9"
         d="m 218.6,514.3 c 0,0 3.2,-2.3 3.4,-5.6"
         id="path53" />
      <path
         class="st9"
         d="m 222,510.6 c 0,0 6.3,5.8 0,10.8"
         id="path54" />
      <path
         class="st9"
         d="m 232.9,513.9 c 0,0 0.2,2.2 1.5,2.1"
         id="path55" />
      <path
         class="st9"
         d="m 235.1,523.9 c 0,0 -1.9,4.1 -4.3,4.3"
         id="path56" />
      <path
         class="st9"
         d="m 479.4,631 c 0,0 -16,-5.9 -17.9,-7 -1.9,-1.1 -20.6,12.1 -34.7,2.2 0,0 -19.7,3.2 -25,0.3 0,0 -8,3.7 -10.9,3.7 -2.9,0 -8.9,6.5 -8.9,6.5 l -45.3,20.6 h -80.2"
         id="path57" />
      <path
         class="st9"
         d="m 296.3,517.2 c 0,0 21,0.3 33.9,2.6 0,0 -4.3,1.7 -6.6,5.1 -2.3,3.4 -12.4,9.8 -12.4,9.8 v 3.8 c 0,0 -2.8,0.7 -2.8,0.7 l -0.5,36.1 3.1,2.3 v 6.8 c 0,0 16.2,0 16.2,0 l 31.4,-9.2 -24.8,-5.6"
         id="path58" />
      <line
         class="st15"
         x1="330.60001"
         y1="568.59998"
         x2="308"
         y2="568.59998"
         id="line58" />
      <polyline
         class="st9"
         points="308.1 564 327.6 564 330.4 564.3"
         id="polyline58" />
      <polyline
         class="st13"
         points="333.3 564.6 373.8 573.8 329.7 589.2 296.3 589.2"
         id="polyline59" />
      <path
         class="st9"
         d="m 373.6,573.8 c 0,0 7.5,3.8 -0.3,6.2 -7.8,2.4 -43,14 -43,14 h -67"
         id="path59" />
      <polyline
         class="st9"
         points="328.2 594.4 328.2 633 328.9 633.5 328.9 641 330.3 641 336.9 647.7 336.7 657.3"
         id="polyline60" />
      <polyline
         class="st9"
         points="382.6 636.1 382.6 627.3 377.7 621.6 377.7 614.6 373.3 609.9 373.3 580"
         id="polyline61" />
      <line
         class="st15"
         x1="377.5"
         y1="621.70001"
         x2="330.29999"
         y2="641"
         id="line61" />
      <polyline
         class="st9"
         points="302 517 302 508.2 298.9 502.2"
         id="polyline62" />
      <polygon
         class="st2"
         points="324.9,534.6 323.6,535.9 317.3,529.3 318.9,528 "
         id="polygon62" />
      <path
         class="st6"
         d="m 324.9,535.2 c 0,0 8.9,13 9.4,42.6 h -2.9 c 0,0 -0.3,-24.1 -7.3,-41.9"
         id="path62" />
      <line
         class="st15"
         x1="285.29999"
         y1="539.29999"
         x2="308.39999"
         y2="539.29999"
         id="line62" />
      <line
         class="st15"
         x1="282.5"
         y1="538.5"
         x2="311.20001"
         y2="538.5"
         id="line63" />
      <line
         class="st15"
         x1="282.70001"
         y1="577.70001"
         x2="311"
         y2="577.70001"
         id="line64" />
      <line
         class="st15"
         x1="307.89999"
         y1="575.40002"
         x2="285.79999"
         y2="575.40002"
         id="line65" />
      <line
         class="st15"
         x1="282.70001"
         y1="584.40002"
         x2="311"
         y2="584.40002"
         id="line66" />
      <line
         class="st15"
         x1="264.79999"
         y1="641"
         x2="328.89999"
         y2="641"
         id="line67" />
      <path
         class="st10"
         d="m 202.1,444.3 c 0,0 0.9,4.7 6.6,2 5.7,-2.7 6.9,1.5 6.9,1.5 -3.2,4.3 -5.9,25.4 -5.9,25.4 0,0 -1.2,13 -9.7,13.4 -8.5,0.4 -8.5,-19.5 -8.5,-19.5 -0.3,-6.1 13.2,-6.9 13.2,-6.9 -0.5,-6.7 -9.3,-7.4 -9.3,-7.4 v -4.9 c 3.3,0.9 6.7,-3.8 6.7,-3.8"
         id="path67" />
      <line
         class="st17"
         x1="157.10001"
         y1="626.70001"
         x2="156.3"
         y2="629.59998"
         id="line68" />
      <line
         class="st17"
         x1="436.70001"
         y1="625.79999"
         x2="437.5"
         y2="629.79999"
         id="line69" />
      <g
         id="g69">
        <g
           id="_x3C_defs" />
        <g
           id="Capa_x5F_1">
          <path
             id="path10"
             class="st12"
             d="M 297.4,481.8 C 292.5,468.2 289,452.7 289,435.7 v -59 c 0,0 -11.3,0 -11.3,0 -8.5,0 -9.6,14.6 1,18.3 -13.9,2.2 -19.8,-10.2 -11.8,-18 -7.7,0.2 -17.3,-1.5 -22.2,-5.8 4.9,-4.2 14.5,-5.8 22.2,-5.6 -8,-7.8 -2.1,-20.1 11.8,-18 -10.6,3.8 -9.5,18.3 -1,18.3 H 293 c 0,0 0,-17.9 0,-17.9 -0.6,-5 -6.8,-1.9 -3.9,1.6 -12.5,-3.2 -8,-14.8 2.2,-23 3.1,-2.5 4.2,-6 6,-8.5 1.8,2.5 3.1,6 6.1,8.5 10.2,8.2 14.7,19.8 2.2,23 2.8,-3.6 -3.4,-6.6 -3.9,-1.6 v 17.9 c 0,0 15.3,0 15.3,0 8.5,0 9.6,-14.6 -1,-18.3 13.9,-2.2 19.8,10.2 11.8,18 7.7,-0.2 17.3,1.4 22.2,5.6 -4.9,4.2 -14.5,5.9 -22.2,5.8 8,7.8 2.1,20.1 -11.8,18 10.6,-3.8 9.5,-18.3 1,-18.3 h -11.3 c 0,0 0,59 0,59 0,17 -3.5,32.5 -8.4,46.1 v 0 z" />
        </g>
      </g>
      <path
         class="st7"
         d="m 379.1,623.2 c 0,0 1.5,-3.5 7.5,-4.5 14.1,-2.3 9.5,-46.3 9.5,-46.3 0,0 -2,-16.3 -6.6,-21.8 -4.6,-5.4 -7.5,-5.6 -9.7,-12.4 0,0 -0.7,-4.4 0.2,-7.1 0,0 -3.6,1.4 -8,-10.9 0,0 -12.5,-1.5 -18.6,-20.5 0,0 -3.2,5.6 -3.4,7.8 -0.2,2.2 -2,1.8 -2.6,0 -0.6,-1.8 -1,-3 -1,-3 0,0 -1.5,-0.6 -1.9,-3.3 -0.4,-2.7 -2.4,3.8 -2.4,3.8 0,0 -2,4.6 0,5.9 2,1.3 -1.8,1.5 -1.8,1.5 0,0 0.1,7.1 -2.4,5 -2.5,-2.1 -2.4,-5 -2.4,-5 0,0 2,-0.5 0.5,-5 0,0 -5.5,0.9 -5.6,-6 0,0 -1.9,-1.5 -1.1,-6.5 0.8,-5 -0.9,-9.4 -0.9,-9.4 0,0 -1.8,-3.6 0.9,-4.2 0,0 -2.2,-2 2.4,-3.8 0,0 0.1,-2.3 -3.3,-4.9 0,0 -1.7,-4 2.4,-4.9 4.1,-0.9 -0.5,-8.3 -0.5,-8.3 0,0 4.2,-2.7 6,-6.9 0,0 -2.8,-13 5.1,-9.3 0,0 3.7,-6.5 6.8,-3.1 0,0 -0.1,-3.4 2.6,-3.6 0,0 4.3,-4.2 5.9,2.8 0,0 1.4,2.8 3.8,3.2 2.4,0.4 2.8,1.5 2.8,1.5 0,0 9.1,-3.1 6.1,8.3 0,0 1.5,4.1 4.7,3.8 0,0 1,4.6 0.6,6.1 -0.4,1.5 3.1,4.7 3.1,4.7 0,0 4.5,1.4 -0.1,-5.7 0,0 -1.5,-5.6 0.9,-7.4 0,0 -6.3,-5 -3.8,-8.3 0,0 -4.6,0 -0.5,-7.1 0,0 -0.6,-3.6 -5.4,-5.2 0,0 -1.3,-4.5 4.2,-4.2 5.5,0.3 4.2,-3.7 4.2,-3.7 0,0 -0.6,-4 1.5,-5.7 0,0 -1.1,-4.2 -6.5,-2.9 0,0 -5.6,-4.3 2.7,-5.7 0,0 2.9,-4.7 6.9,-4.9 0,0 2,-2.2 2.7,-4 0,0 1.9,2.2 4.6,1.7 2.7,-0.5 3.1,1.4 3.1,1.4 0,0 1.4,-1.8 3.1,-0.4 0,0 -1.1,-8.3 5.9,-1.8 0,0 5.4,-3.8 9.6,3.6 0,0 6.4,-2.2 6,9.3 0,0 1.3,3.2 2.8,4 1.5,0.8 0,4 0,4 0,0 -0.9,2.7 0.7,3.4 1.6,0.7 2,2.8 2.1,4.3 0.1,1.5 2.9,-0.4 2.9,-0.4 0,0 0.3,6.3 2.9,5.1 2.6,-1.2 0,-6.8 0,-6.8 0,0 0,-4.5 2,-6.4 2,-1.9 -3.4,-6 -3.4,-6 0,0 6,-2.2 9.3,0.3 3.3,2.5 -1.1,-6.1 -1.1,-6.1 0,0 -4.6,-5.1 -5.9,-4.7 -1.3,0.4 5.9,-8 11.1,3.4 0,0 1.3,2.7 2.3,-2.4 0,0 0.8,-1.8 3.4,-1.4 0,0 5,-1.4 2.3,4.3 0,0 -3.4,1.4 -1.9,4.6 1.5,3.2 0.9,6.4 4.2,2.9 3.3,-3.5 4.5,-0.3 4.5,-0.3 0,0 0.4,2.4 2.9,5.4 0,0 -0.8,-7.1 2.8,-9 0,0 2.3,-0.1 2.2,4.5 0,0 2.3,1.9 1.3,4.4 0,0 -1.3,5 -0.8,6.1 0,0 8.7,-3.4 7.5,10.1 0,0 1.8,3.4 4.6,3.7 2.8,0.3 6.5,0.3 6.8,7.3 0,0 -3.2,-1.1 -4.6,0.5 -1.4,1.6 3.4,6 3.4,6 0,0 2.2,4.2 0.3,6.5 -1.9,2.3 0.9,3.1 0.9,3.1 0,0 -1.3,1 -1,2.3 0.3,1.3 3.2,3.3 1,8.2 0,0 -3.1,-0.6 -3.4,1 -0.3,1.6 -0.8,7.1 -5.6,8.4 0,0 3.7,7 -0.3,11.5 0,0 -6.5,-3.7 -5.6,-6.4 0,0 1.4,7.7 -2.7,5.4 -4.1,-2.3 -4.1,-4.7 -4.1,-4.7 0,0 -2.8,0 -1.7,-3.2 0,0 -3.8,-4.5 -0.6,-7.1 0,0 -5.5,0 -5,-3.1 0,0 -6.5,-0.6 -13,5.1 -6.5,5.7 -13.7,13.1 -18,28 0,0 7.5,2 7.3,-5.6 0,0 0.8,-4.2 4.7,-2.8 0,0 1.8,-3.8 5.1,-1.7 0,0 2.2,-2.6 3.6,-1.3 0,0 2.7,-2 1.5,-4.1 0,0 4.9,-1.5 5.2,8 0,0 1.8,-5.6 3.6,-4.4 0,0 3.2,1.7 2.2,5.9 0,0 2.9,1.7 3.1,0 0,0 3.6,6 0.3,8 0,0 -5.5,-2.6 -4.3,7.8 0,0 4.2,-0.1 3.4,4.3 -0.8,4.4 -5.1,3.2 -5.1,3.2 0,0 -10.3,13.8 -15.6,13.9 -5.3,0.1 -3.3,-7.3 -3.3,-7.3 0,0 -5,-7.3 -1.1,-10.5 0,0 -11.6,-3.7 -15.6,7.7 -4,11.4 2.6,44.8 2.6,44.8 0,0 1.7,3.4 0.4,7.3 -1.3,3.8 -0.4,12.8 -0.4,12.8 0,0 1.6,6.2 8.4,16.4 6.8,10.2 7.4,5.4 8.7,11.6"
         id="path69" />
      <path
         class="st9"
         d="m 396.6,628.6 c 0,0 1.6,-8.3 3.8,-14"
         id="path70" />
      <line
         class="st15"
         x1="405.29999"
         y1="627.40002"
         x2="406"
         y2="616.20001"
         id="line70" />
      <line
         class="st15"
         x1="415.5"
         y1="627.40002"
         x2="413.70001"
         y2="614.40002"
         id="line71" />
      <path
         class="st9"
         d="m 422.6,626.7 c 0,0 -2.3,-7 -1.7,-10.5 0.6,-3.5 -4.2,-14.9 -4.2,-14.9 0,0 -0.9,-3.2 0,-7"
         id="path71" />
      <path
         class="st9"
         d="m 401.8,573.1 c 0,0 -1.4,-14 -4.1,-20.1"
         id="path72" />
      <path
         class="st9"
         d="m 410.3,572.3 c 0,0 -2,-18.6 -6.6,-25.4"
         id="path73" />
      <path
         class="st9"
         d="m 403.2,562.1 c 0,0 -0.4,-27.1 0,-29.1"
         id="path74" />
      <path
         class="st9"
         d="m 406.5,538.3 c 0,0 8.5,-2.9 3.1,-14.4 0,0 -2.9,-3 2.4,-8.8 0,0 2.3,-5.4 1.1,-16.3"
         id="path75" />
      <path
         class="st9"
         d="m 359,502.4 c 0,0 3.4,7.2 8,8.5 0,0 3.1,1.4 4.7,3.8"
         id="path76" />
      <path
         class="st10"
         d="m 355.5,489.9 c 0,0 -3.1,-2.6 1.9,-3 5,-0.4 8.4,-7.7 8.4,-7.7 0,0 3.1,7.2 1.4,12.3 0,0 3.1,4.1 1.5,7.2 0,0 0.7,6.7 -2.9,4.3 -3.6,-2.4 -10.3,-13.2 -10.3,-13.2 z"
         id="path77" />
      <path
         class="st9"
         d="m 342.2,493.8 c 0,0 -0.8,-2.9 0,-3.8"
         id="path78" />
      <path
         class="st9"
         d="m 339.6,479.3 c 0,0 4.2,1.5 5,7.1"
         id="path79" />
      <path
         class="st9"
         d="m 343.2,468.1 c 0,0 7.2,-2 8.8,0.9"
         id="path80" />
      <path
         class="st9"
         d="m 353,458.5 c 0,0 0.2,-3.5 4.7,-1.8"
         id="path81" />
      <line
         class="st15"
         x1="352"
         y1="450.70001"
         x2="352.5"
         y2="453.5"
         id="line81" />
      <path
         class="st9"
         d="m 343.2,446.6 c 0,0 4,0.9 4.4,-2"
         id="path82" />
      <path
         class="st9"
         d="m 364.6,464.5 c 0,0 9.5,3.1 12.9,8.9 3.4,5.8 -4.1,4.9 -4.1,4.9 0,0 -4.8,-1.4 -5.2,-3.1"
         id="path83" />
      <path
         class="st10"
         d="m 376.7,478.4 c 0,0 -1.6,8.1 2,11.5 0,0 -0.4,1 -1.2,1.2 0,0 -0.4,4.4 -1.2,5.2 -0.8,0.8 -2.4,14.4 6.9,20.8 0,0 2.7,4.7 4.1,10.6 1.4,5.9 6.6,8.3 6.6,8.3 0,0 1,1.2 4.3,-3.9 3.3,-5.1 3.1,-11.2 7.4,-16.8 0,0 2.8,-8.1 0,-12.2 -2.8,-4.1 -11.6,-10.9 -10.7,-41.5 0,0 -7.7,2.6 -4.2,14.3 0,0 -6.1,0.5 -9.3,-7.1 0,0 -2.2,-1.4 -2,0.9 0,0 0.8,3.6 -1,4.3"
         id="path84" />
      <path
         class="st9"
         d="m 407.8,498.9 c 0,0 -4.4,-5 -5.7,-10"
         id="path85" />
      <path
         class="st9"
         d="m 403.1,485.7 c 0,0 -2.3,-3.2 -2.5,-7.9"
         id="path86" />
      <path
         class="st9"
         d="m 408,451.5 c 0,0 -5.4,-0.9 -6.7,2.8"
         id="path87" />
      <path
         class="st9"
         d="m 399.3,446.3 c 0,0 1.8,3.6 3.8,4.3"
         id="path88" />
      <path
         class="st9"
         d="m 400,457.4 c 0,0 2.1,7.6 5.3,7.8"
         id="path89" />
      <path
         class="st9"
         d="m 386.7,462.6 c 0,0 0.4,-2.5 2.7,-4.1"
         id="path90" />
      <path
         class="st9"
         d="m 387.7,446.7 c 0,0 2.4,2.5 4.6,2.6"
         id="path91" />
      <path
         class="st9"
         d="m 395.2,461.3 c 0,0 0.4,-14 -0.5,-17.9"
         id="path92" />
      <path
         class="st9"
         d="m 400,431.8 c 0,0 1.6,0.3 2.7,-2.2 0,0 5.3,0.6 5.3,-4.1 0,0 1.8,5.4 5.4,5.9"
         id="path93" />
      <path
         class="st9"
         d="m 393.5,408.6 c 0,0 0.2,6.9 -1.6,7.6"
         id="path94" />
      <path
         class="st9"
         d="m 428.5,470.5 c 0,0 0,14.2 -5.1,17.8"
         id="path95" />
      <path
         class="st9"
         d="m 429.9,481.7 c 0,0 2,-3.6 5.9,-4.7"
         id="path96" />
      <path
         class="st10"
         d="m 440.7,450.3 c 0,0 -8.9,15.9 -4.9,20.3 4,4.4 11.7,-3.7 11.7,-3.7 0,0 0.8,-6.2 3,-7.2 0,0 -0.4,-5.6 -4.9,-5.4 0,0 -4.9,-0.3 -4.6,-3.6"
         id="path97" />
      <path
         class="st9"
         d="m 434.3,438.4 c 0,0 4.4,-5.4 8.3,2.8"
         id="path98" />
      <path
         class="st9"
         d="m 444.5,423.1 c 0,0 -1.8,3.9 -3.7,4.2"
         id="path99" />
      <path
         class="st9"
         d="m 459.5,430.7 c 0,0 0.8,2.1 0.9,3.4"
         id="path100" />
      <path
         class="st9"
         d="m 460.4,438.1 c 0,0 -4.4,5.7 -2.1,7.6"
         id="path101" />
      <path
         class="st9"
         d="m 465,445.1 c 0,0 3.8,-0.9 4.9,-4.4"
         id="path102" />
      <path
         class="st9"
         d="m 449.4,466.5 c 0,0 5.2,1.1 6.6,-3.1"
         id="path103" />
      <path
         class="st9"
         d="m 462.7,457.4 c 0,0 4.5,7.6 -3.7,11.1 0,0 -8.3,4.1 -5.8,10.2"
         id="path104" />
      <path
         class="st9"
         d="m 459.9,475.3 c 0,0 7,1.7 4.3,10.4 0,0 -3.5,3.5 -2.9,4.9"
         id="path105" />
      <path
         class="st9"
         d="m 468.1,476.6 c 0,0 0.3,4.3 4,4.2"
         id="path106" />
      <line
         class="st15"
         x1="475.60001"
         y1="463.39999"
         x2="477.70001"
         y2="466.60001"
         id="line106" />
      <path
         class="st9"
         d="m 432,516.6 c 0,0 3.2,-2.3 3.4,-5.6"
         id="path107" />
      <path
         class="st9"
         d="m 435.4,512.8 c 0,0 6.3,5.8 0,10.8"
         id="path108" />
      <path
         class="st9"
         d="m 446.3,516.1 c 0,0 0.2,2.2 1.5,2.1"
         id="path109" />
      <path
         class="st9"
         d="m 448.5,526.2 c 0,0 -1.9,4.1 -4.3,4.3"
         id="path110" />
      <path
         class="st10"
         d="m 415.5,446.5 c 0,0 0.9,4.7 6.6,2 5.7,-2.7 6.9,1.5 6.9,1.5 -3.2,4.3 -5.9,25.4 -5.9,25.4 0,0 -1.2,13 -9.7,13.4 -8.5,0.4 -8.5,-19.5 -8.5,-19.5 -0.3,-6.1 13.2,-6.9 13.2,-6.9 -0.5,-6.7 -9.3,-7.4 -9.3,-7.4 v -4.9 c 3.3,0.9 6.7,-3.8 6.7,-3.8"
         id="path111" />
    </g>
  </g>
</svg>
